<svg width="90" height="98" viewBox="0 0 90 98" fill="none" xmlns="http://www.w3.org/2000/svg">
<g clip-path="url(#clip0_1_114)">
<path d="M53.7671 0C54.3323 0.616024 55.0198 1.15853 55.44 1.86075C58.3096 6.65204 60.4714 11.7323 61.2913 17.2943C62.4116 24.8995 60.6827 31.6251 55.03 37.1161C54.7856 37.3544 54.5488 37.7422 54.5462 38.0616C54.5131 41.735 54.5259 45.4108 54.5259 49.3655C55.5775 47.9713 56.6673 47.0561 56.9524 45.3094C58.055 38.5281 61.9813 33.6886 67.9523 30.4361C72.37 28.0303 77.1621 26.8896 82.1375 26.4332C83.3368 26.3217 84.5462 26.2456 85.7506 26.2482C87.4948 26.2482 88.6177 27.5816 88.251 29.2801C87.2071 34.112 85.1268 38.4292 81.6919 42.0417C80.9025 42.8707 80.0012 42.9188 79.3824 42.204C78.8604 41.6031 78.9368 40.8173 79.6294 40.0846C81.8905 37.6966 83.4768 34.9105 84.5819 31.8355C84.6939 31.5211 84.7805 31.1967 84.9587 30.6136C76.6758 35.3238 68.958 40.366 61.8132 46.2499L61.882 46.5795C63.784 46.4299 65.7294 46.4705 67.5805 46.0801C69.8263 45.606 72.0085 44.7999 74.1932 44.0647C75.1938 43.7275 75.945 43.8416 76.3269 44.6047C76.7343 45.4159 76.4033 46.1713 75.3975 46.6632C71.2573 48.6861 66.8472 49.401 62.2792 49.3351C61.169 49.3199 60.0614 49.2084 58.9513 49.1754C58.7323 49.1678 58.4395 49.2515 58.2943 49.401C56.6062 51.1426 55.4221 53.1707 54.9053 55.5587C54.8798 55.6753 54.9027 55.7996 54.9027 55.8832C56.8913 56.1976 58.8392 56.4257 60.7566 56.8212C66.2641 57.9544 71.1784 60.3627 75.5681 63.8586C77.3047 65.2427 79.0591 66.6066 80.7727 68.0186C81.2412 68.404 81.5722 68.371 82.1095 68.1302C83.0745 67.6967 84.0955 67.2125 85.1217 67.1288C87.2122 66.959 89.0582 68.3837 89.7381 70.4041C90.4306 72.4601 89.7559 74.8659 88.0677 76.032C82.7715 79.6927 77.4906 83.3812 72.1103 86.9176C70.8321 87.7567 69.2229 88.355 67.7053 88.5299C59.9494 89.4299 52.1757 90.193 44.3994 90.9002C43.0779 91.0194 41.6545 90.8216 40.3738 90.4439C36.5136 89.3057 32.6943 88.0331 28.8749 86.763C27.4948 86.3041 26.3235 86.4765 25.2948 87.5159C25.1166 87.6959 24.9231 87.8607 24.7245 88.0204C23.8205 88.7581 23.1127 89.3589 23.5583 90.8723C24.0523 92.5455 23.1 94.0133 21.5544 94.9158C20.1132 95.7574 18.6338 96.5408 17.1723 97.3495H15.4561C13.9003 96.8805 12.9506 95.7955 12.1612 94.4138C8.42588 87.8683 4.62431 81.3607 0.850761 74.838C-0.697363 72.1635 -0.11427 69.9859 2.54911 68.442C3.18059 68.0769 3.83243 67.7449 4.43844 67.3418C6.45253 66.0033 8.43352 65.8004 10.3712 67.466C13.5922 65.6661 16.7929 63.9194 19.9528 62.1018C24.6099 59.4247 29.4631 58.7656 34.5989 60.5072C34.8917 60.6061 35.3143 60.6238 35.5715 60.4819C40.4374 57.8251 45.6267 56.3142 51.1673 56.0151C51.2539 56.01 51.3405 55.9542 51.669 55.83C51.1495 54.5777 50.6988 53.3127 50.1081 52.1161C49.1023 50.0728 47.7986 48.927 45.1098 49.2084C39.8747 49.761 34.7847 48.7647 30.1251 46.1942C23.3342 42.4473 19.5785 36.5279 18.0736 29.0672C17.7859 27.645 18.8477 26.2406 20.3347 26.271C29.1142 26.451 37.3819 28.2027 43.9513 34.5937C47.2257 37.7777 48.9801 41.7578 49.609 46.2575C49.6651 46.6581 49.9044 47.0662 50.1539 47.3983C50.5639 47.9459 51.0528 48.4352 51.669 49.1247C51.669 48.6507 51.669 48.3819 51.669 48.1158C51.669 44.8531 51.6868 41.5905 51.646 38.3278C51.641 37.9146 51.4296 37.3949 51.1368 37.1085C45.4586 31.582 43.7603 24.8184 44.9086 17.1878C45.7464 11.6284 47.9132 6.55317 50.8032 1.77455C51.2055 1.09769 51.8803 0.585603 52.4328 0H53.7671ZM21.7148 86.8568C22.2622 86.3751 22.7078 86.0202 23.1127 85.6222C25.0988 83.655 27.3649 83.2139 30.0156 84.1214C33.7051 85.3814 37.4227 86.5602 41.1555 87.6832C42.1638 87.9849 43.2892 88.1446 44.3281 88.0483C51.5646 87.3765 58.7934 86.6058 66.0273 85.9036C67.9268 85.7185 69.6735 85.247 71.2675 84.1265C75.2397 81.3379 79.2577 78.6178 83.2578 75.8698C84.2763 75.1701 85.3177 74.4958 86.3108 73.7631C87.2504 73.071 87.4159 71.7579 86.7462 70.7895C86.1173 69.8768 85.1624 69.6994 84.0675 70.2774C80.7039 72.0519 77.3276 73.8088 73.9716 75.601C71.1275 77.117 68.105 77.9587 64.8891 78.1691C59.5343 78.5189 54.1821 78.8865 48.8273 79.2465C47.7986 79.3149 47.1239 78.8231 47.0551 77.9587C46.9864 77.0613 47.5338 76.4858 48.5753 76.4123C51.394 76.2171 54.2152 76.0396 57.0339 75.852C58.9869 75.7227 60.9399 75.5884 62.8699 75.4565C63.15 73.2054 61.6707 71.2052 59.5318 70.9112C57.0161 70.5639 54.5004 70.1785 51.972 69.996C48.0023 69.7095 44.3587 68.6651 40.9518 66.5128C38.9122 65.225 36.5875 64.3504 34.3264 63.453C29.8042 61.6607 25.4552 62.1702 21.2743 64.6242C18.4861 66.2593 15.6343 67.793 12.8131 69.3724C12.5228 69.5346 12.2376 69.7095 11.9015 69.9073C12.4922 70.9314 13.0346 71.8567 13.5617 72.7922C14.1117 73.7707 13.9793 74.5845 13.2128 75.0256C12.449 75.4642 11.6494 75.1726 11.0893 74.222C10.2541 72.8023 9.44947 71.3649 8.60921 69.9504C8.08468 69.0682 7.50668 68.9084 6.61803 69.3952C5.61735 69.9428 4.62686 70.5132 3.65164 71.1038C2.78846 71.6235 2.63314 72.2117 3.14494 73.0989C7.10437 79.9538 11.0714 86.8061 15.0461 93.6533C15.586 94.5862 16.141 94.7155 17.1035 94.1832C17.9922 93.6914 18.8681 93.1818 19.7465 92.6723C20.9305 91.9802 21.0706 91.4681 20.3882 90.2842C18.7433 87.4323 17.0908 84.5828 15.4408 81.7309C15.1709 81.2644 14.8832 80.8081 14.6438 80.3264C14.2466 79.5228 14.4656 78.7471 15.1684 78.3541C15.8406 77.9764 16.579 78.1691 17.073 78.8764C17.2716 79.1603 17.4294 79.4746 17.6051 79.7763C18.9521 82.0985 20.2991 84.4206 21.7148 86.8619V86.8568ZM78.5549 69.9783C64.8306 56.9378 50.0674 56.7071 38.9173 62.0713C40.8499 63.1589 42.7698 64.3352 44.7788 65.3289C46.0086 65.9373 47.3505 66.4697 48.6949 66.675C52.3284 67.2328 55.9925 67.5953 59.6438 68.044C62.6051 68.4065 64.8586 70.3763 65.6072 73.2739C65.7676 73.8975 65.8236 74.549 65.9331 75.2132C70.7099 74.7366 74.4223 71.9227 78.5523 69.9783H78.5549ZM44.5012 46.3691C42.37 43.7833 23.9122 31.3513 21.5035 30.8772C24.8314 42.427 34.8917 47.0764 44.5012 46.3691ZM51.6359 6.51008L51.4958 6.44923C51.3634 6.68753 51.2157 6.91822 51.0986 7.16159C49.5148 10.4597 48.2926 13.8821 47.7375 17.5047C46.9686 22.5039 47.4753 27.2952 50.3093 31.653C50.6759 32.2158 51.0986 32.743 51.6359 33.4808V6.51008ZM54.5742 33.3971C56.5501 31.0141 57.7494 28.4968 58.33 25.6955C59.2925 21.0335 58.5897 16.5033 57.0645 12.0746C56.4025 10.153 55.5673 8.29224 54.811 6.40614L54.5742 6.48219V33.3971ZM60.3186 43.6591C66.8421 38.4723 73.7527 33.8585 80.8873 29.5463C80.3806 29.5336 79.912 29.5894 79.4461 29.6705C74.5802 30.5173 69.9613 31.9876 66.0273 35.1108C63.2239 37.3366 61.2734 40.1505 60.3186 43.6591V43.6591ZM25.5036 29.5615C32.6281 33.8686 39.5233 38.4951 46.1869 43.8923C45.1302 40.2874 43.2689 37.5293 40.5775 35.3288C36.2055 31.7544 31.0061 30.2815 25.5036 29.5615V29.5615Z" fill="white"/>
</g>
<defs>
<clipPath id="clip0_1_114">
<rect width="90" height="97.3469" fill="white"/>
</clipPath>
</defs>
</svg>
