<svg width="131" height="131" viewBox="0 0 131 131" fill="none" xmlns="http://www.w3.org/2000/svg">
<g clip-path="url(#clip0_1_1154)">
<path d="M78.8455 0C80.4232 0.324986 82.0238 0.567192 83.5769 0.985689C96.5956 4.49922 105.032 16.2662 104.392 29.9662C103.802 42.5885 93.9145 53.5905 81.1245 55.8562C65.4232 58.637 50.4003 47.5706 48.3883 31.7413C46.4117 16.2002 57.3171 2.16913 72.8772 0.222278C73.1672 0.185487 73.4481 0.0751147 73.7335 0C75.437 0 77.1405 0 78.8455 0ZM76.2166 51.124C88.913 51.1715 99.2567 40.9329 99.3104 28.2646C99.3641 15.5656 89.1202 5.17372 76.4898 5.11546C63.7044 5.05568 53.3131 15.2927 53.2686 27.9917C53.2226 40.7643 63.4527 51.0765 76.2166 51.124Z" fill="#5EA756"/>
<path d="M98.1427 73.5802C98.4742 73.0912 98.6859 72.6543 99.0067 72.3232C103.835 67.3411 108.664 62.359 113.52 57.403C118.379 52.4423 126.89 53.5614 129.818 59.8158C131.625 63.6743 131.487 67.7489 128.529 71.2854C124.217 76.4438 119.9 81.5991 115.583 86.7544C112.742 90.1484 109.86 93.5086 107.065 96.9394C102.423 102.64 96.3578 105.323 89.1065 105.364C78.2041 105.427 67.3003 105.496 56.3995 105.32C52.5121 105.257 50.0336 107.265 47.6794 109.807C47.4861 110.015 47.5029 110.508 47.5613 110.843C48.0554 113.679 47.4093 116.155 45.3268 118.206C41.3842 122.089 37.4493 125.98 33.499 129.855C31.9336 131.391 30.6445 131.382 29.0945 129.821C19.7606 120.435 10.4298 111.043 1.10506 101.646C-0.366699 100.162 -0.369768 98.8142 1.10045 97.3333C4.96937 93.4366 8.85364 89.5551 12.7318 85.6691C14.4475 83.9491 16.5009 83.1351 18.9487 83.2102C19.3723 83.224 19.9908 82.8837 20.2133 82.5204C26.8677 71.6579 36.8492 67.036 49.2786 67.0345C53.2304 67.0345 57.0471 67.847 60.7441 69.2558C61.358 69.4888 62.0701 69.544 62.7377 69.5455C71.1707 69.5639 79.6038 69.6252 88.0353 69.5271C91.8751 69.4826 95.3066 70.2077 98.1411 73.5802H98.1427ZM44.2187 105.93C44.6285 105.558 44.9308 105.323 45.1856 105.044C48.4053 101.5 52.3909 100.149 57.1775 100.224C67.7346 100.39 78.2978 100.298 88.8579 100.267C94.6697 100.251 99.5408 98.1933 103.233 93.5531C105.458 90.757 107.81 88.062 110.105 85.3226C114.941 79.548 119.789 73.7841 124.605 67.9957C126.519 65.6962 126.348 62.6641 124.277 60.7647C122.24 58.8991 119.137 58.9727 117.137 61.0146C111.659 66.6099 106.204 72.2297 100.764 77.8602C100.478 78.1545 100.256 78.6543 100.257 79.0575C100.274 85.5955 95.9957 89.9951 89.4564 90.0319C82.8987 90.0687 76.341 90.0426 69.7834 90.0334C69.3199 90.0334 68.8411 89.9935 68.3945 89.8755C67.2819 89.5781 66.5513 88.5434 66.582 87.3952C66.6127 86.1949 67.4507 85.1908 68.6508 84.9961C69.1925 84.9087 69.7542 84.9118 70.3052 84.9118C76.5651 84.9072 82.8235 84.9118 89.0835 84.9026C89.7204 84.9026 90.3665 84.8873 90.9911 84.7784C93.7029 84.3109 95.5445 81.6236 95.0365 78.9272C94.527 76.2184 92.5165 74.6747 89.3797 74.6686C80.2253 74.6533 71.0694 74.6686 61.9151 74.6487C61.1631 74.6472 60.3482 74.6073 59.6699 74.3268C54.452 72.1576 49.0499 71.6472 43.5143 72.5271C35.3667 73.8224 29.0024 77.851 24.7207 85.0007C24.3278 85.6583 24.3094 86.083 24.9156 86.6226C25.8993 87.4994 26.7955 88.4729 27.7271 89.4064C33.1982 94.8867 38.6709 100.367 44.2218 105.927L44.2187 105.93ZM31.8937 124.821C35.1488 121.427 38.5834 117.887 41.9658 114.297C43.034 113.163 42.836 111.737 41.5545 110.455C34.5411 103.441 27.523 96.4304 20.4988 89.4263C19.0071 87.9394 17.7118 87.9516 16.2017 89.4539C13.8168 91.8254 11.4534 94.2184 9.07156 96.5929C8.11853 97.5418 7.14247 98.4662 6.04365 99.5316C14.621 107.923 23.0448 116.164 31.8953 124.822L31.8937 124.821Z" fill="#5EA756"/>
<path d="M75.7148 45.9932C74.3581 45.9656 73.1411 44.9661 73.2777 43.5818C73.491 41.4372 72.9002 40.0453 70.8069 39.1853C69.926 38.8236 69.22 37.9145 68.5693 37.1404C67.6025 35.9922 67.7621 34.5313 68.8241 33.6023C69.8492 32.704 71.212 32.7454 72.294 33.7142C72.8327 34.1956 73.3176 34.749 73.9054 35.1567C75.0994 35.9861 76.4192 35.9983 77.3446 35.2349C78.2117 34.519 78.5585 33.587 78.201 32.4986C77.7697 31.1895 76.7491 30.725 75.4385 30.6499C72.3017 30.469 70.0257 28.913 68.7658 26.0709C67.5211 23.2672 67.9186 20.5523 69.8692 18.1808C70.526 17.3822 71.4207 16.7077 72.3339 16.214C73.0629 15.8216 73.2977 15.4108 73.2332 14.6458C73.1764 13.9698 73.1856 13.2815 73.2424 12.6055C73.356 11.2411 74.4748 10.2233 75.7869 10.2294C77.1067 10.2355 78.4511 11.2887 78.2639 12.6147C77.9339 14.9586 78.8409 16.303 80.9158 17.1522C81.4008 17.3515 81.7982 17.8175 82.1712 18.2207C83.0996 19.2248 83.1211 20.5768 82.2709 21.5855C81.4084 22.608 79.9674 22.7858 78.821 21.9979C78.2961 21.6376 77.8188 21.2007 77.2709 20.8834C76.2212 20.2748 75.1469 20.2534 74.1786 21.0566C73.313 21.7741 72.9938 22.7153 73.3713 23.8022C73.7826 24.9856 74.6727 25.4884 75.9097 25.5681C79.3965 25.7919 81.8504 27.5058 83.0398 30.8185C84.0941 33.7526 83.1672 36.9687 80.7854 39.0382C80.5935 39.2053 80.4093 39.4352 80.1822 39.5027C78.316 40.053 78.2132 41.4296 78.3053 43.0637C78.4097 44.9186 77.3262 46.0223 75.7148 45.9901V45.9932Z" fill="#5EA756"/>
<path d="M60.9712 87.0947C60.9374 88.4789 59.811 89.5888 58.439 89.5857C57.047 89.5826 55.8392 88.344 55.8807 86.9613C55.9221 85.5494 57.1406 84.435 58.5725 84.4994C59.9645 84.5622 61.005 85.6889 60.9712 87.0947Z" fill="#5EA756"/>
</g>
<defs>
<clipPath id="clip0_1_1154">
<rect width="131" height="131" fill="white"/>
</clipPath>
</defs>
</svg>
