<svg width="90" height="81" viewBox="0 0 90 81" fill="none" xmlns="http://www.w3.org/2000/svg">
<g clip-path="url(#clip0_1_116)">
<path d="M0 38.1592C0.39479 37.6634 0.719341 37.0878 1.19406 36.6839C15.2055 24.7414 29.2314 12.8134 43.2549 0.883021C44.6452 -0.29962 45.3936 -0.292364 46.7935 0.899951C50.8262 4.33662 54.8588 7.7733 58.8939 11.2051C59.0635 11.3502 59.2524 11.4736 59.5334 11.6816C59.5503 11.2922 59.5745 11.0141 59.5745 10.7384C59.577 8.60284 59.56 6.46731 59.5818 4.33179C59.5963 2.8952 60.3665 2.08501 61.8052 2.06808C64.6753 2.03422 67.5478 2.03422 70.4179 2.06808C72.0068 2.08501 72.7746 2.93632 72.777 4.58573C72.7818 10.4361 72.7891 16.2864 72.7649 22.1367C72.7624 22.7486 72.932 23.1428 73.4043 23.5418C78.5874 27.929 83.7512 32.3403 88.9173 36.7492C89.9467 37.6271 90.2228 38.4349 89.8232 39.3346C89.363 40.3697 88.1714 40.7857 87.1783 40.2342C86.8732 40.065 86.5946 39.8449 86.3282 39.6175C72.7673 28.091 59.2112 16.5597 45.6527 5.03073C45.4759 4.88078 45.2894 4.73809 45.0351 4.5301C44.8147 4.6994 44.5846 4.86144 44.3691 5.04282C30.8299 16.5524 17.2957 28.0644 3.74929 39.5643C3.31817 39.9319 2.79502 40.2923 2.25975 40.4181C1.12866 40.6817 0.469873 39.9658 0 39.0371V38.1592ZM63.457 6.02473C63.457 8.09979 63.6217 10.1555 63.4134 12.1749C63.1906 14.3274 63.8397 15.8269 65.6611 16.9926C66.7704 17.7036 67.7125 18.6783 68.8388 19.6287V6.02473H63.4595H63.457Z" fill="#5EA756"/>
<path d="M14.1715 41.8738C13.3528 42.5751 12.7158 43.129 12.0716 43.6731C10.9453 44.6187 9.80454 44.6357 9.04887 43.7239C8.2932 42.8146 8.48212 41.6851 9.58898 40.7395C18.3567 33.2494 27.1317 25.7666 35.9043 18.2814C38.3747 16.1725 40.8452 14.0611 43.3205 11.9595C44.6333 10.8445 45.3938 10.8397 46.7114 11.9643C57.9592 21.5536 69.2023 31.1478 80.4453 40.7443C81.3778 41.54 81.6442 42.3502 81.2882 43.1991C80.7699 44.4253 79.4329 44.7759 78.3042 43.9609C77.9022 43.6707 77.5413 43.3224 77.161 43.0008C76.7856 42.6815 76.4078 42.3623 75.8314 41.8713C75.8314 42.401 75.8314 42.7275 75.8314 43.054C75.8314 54.4596 75.8314 65.8676 75.8314 77.2732C75.8314 77.6819 75.8314 78.0955 75.7708 78.4969C75.6424 79.3555 75.0151 79.9698 74.1529 80.1125C73.8937 80.156 73.6273 80.1681 73.3657 80.1681C54.4739 80.1705 35.5797 80.173 16.6879 80.156C16.1551 80.156 15.569 80.0327 15.1039 79.786C14.2829 79.3507 14.169 78.5139 14.1715 77.6577C14.1787 73.5922 14.1739 69.5268 14.1739 65.4613C14.1739 58.0027 14.1739 50.544 14.1739 43.0854V41.8738H14.1715ZM45.0377 15.6356C44.8585 15.771 44.764 15.8363 44.6744 15.9113C35.9794 23.307 27.2891 30.7052 18.5795 38.0864C18.1363 38.4613 18.054 38.8579 18.054 39.3779C18.0612 51.3687 18.0588 63.3596 18.0612 75.3529C18.0612 75.6359 18.0903 75.9188 18.1072 76.2236H33.3854C33.3854 75.8197 33.3854 75.4738 33.3854 75.128C33.3854 68.0805 33.3854 61.0306 33.3854 53.9831C33.3854 52.1596 34.0539 51.5018 35.8801 51.5018C41.9133 51.5018 47.9466 51.5018 53.9823 51.5018C56.0483 51.5018 56.6417 52.0943 56.6417 54.1694C56.6417 61.1878 56.6417 68.2087 56.6417 75.2271V76.2332H71.9198C71.9392 75.9309 71.9682 75.677 71.9682 75.4206C71.9682 63.3717 71.9755 51.3204 71.944 39.2715C71.944 38.8555 71.663 38.3234 71.3409 38.0453C65.5208 33.0511 59.6765 28.0884 53.8345 23.1208C50.916 20.6394 47.9974 18.1581 45.0353 15.6404L45.0377 15.6356ZM52.6938 76.2429V55.4318H37.3284V76.2429H52.6938Z" fill="#5EA756"/>
</g>
<defs>
<clipPath id="clip0_1_116">
<rect width="90" height="80.1681" fill="white"/>
</clipPath>
</defs>
</svg>
