<svg width="131" height="131" viewBox="0 0 131 131" fill="none" xmlns="http://www.w3.org/2000/svg">
<g clip-path="url(#clip0_1_1151)">
<path d="M45.4901 50.898C42.7058 50.1219 39.8994 49.5509 37.2613 48.5432C34.6631 47.5502 32.2346 46.116 29.6054 44.8117C24.6186 48.8073 20.7138 53.8755 18.0211 59.8792C17.8971 60.1551 17.8912 60.6052 18.0344 60.8604C19.6302 63.6919 21.3161 66.4731 22.8736 69.3267C23.7756 70.9792 24.992 72.0416 26.8566 72.4783C28.0317 72.7542 29.1832 73.2278 30.2727 73.7605C33.0038 75.0973 34.1494 77.4905 33.2415 80.3987C32.5461 82.6281 31.5113 84.7528 30.6078 86.9158C30.3125 87.6241 29.9922 88.3264 29.6157 88.9933C28.1956 91.5119 27.9608 93.8063 29.5818 96.5477C31.5895 99.9428 32.1047 103.868 31.6102 107.834C31.5083 108.653 31.6456 109.197 32.4162 109.601C34.731 110.82 37.0074 112.117 39.3296 113.321C40.7262 114.044 41.2104 114.923 40.6745 116.083C40.1726 117.172 39.1953 117.466 37.7869 116.825C22.6212 109.923 13.4004 98.3301 11.2243 81.7738C9.20184 66.3905 14.4027 53.4122 25.8631 42.9496C25.9959 42.8272 26.1362 42.7121 26.2646 42.5852C26.3281 42.5232 26.3738 42.4435 26.4698 42.3152C26.3104 42.1278 26.1657 41.9035 25.9708 41.7368C18.743 35.5546 13.359 27.9662 9.02321 19.5752C8.47256 18.5099 8.56261 17.5582 9.48676 16.7703C18.5275 9.07126 28.4096 2.9864 40.3261 0.88828C51.1826 -1.02246 60.4743 2.39769 68.672 9.38701C69.6286 10.203 69.6759 11.2638 68.9053 12.1299C68.1494 12.9798 67.1795 13.055 66.1446 12.2052C62.9795 9.60686 59.6003 7.36709 55.7428 5.93145C52.898 4.87354 49.9721 4.19629 46.7228 4.22875C47.021 4.69796 47.2085 5.03731 47.4358 5.34716C52.4345 12.1668 57.4346 18.9865 62.4495 25.7958C62.7285 26.1735 63.1006 26.6619 63.5006 26.7445C69.0706 27.8821 74.6524 28.9577 80.2327 30.0481C80.3213 29.9551 80.4099 29.8607 80.4984 29.7677C78.4243 26.7725 76.3501 23.7773 74.273 20.7851C74.118 20.5623 73.9334 20.3616 73.7681 20.1462C72.8026 18.8861 72.8218 17.8371 73.8212 17.0787C74.7749 16.3542 75.7921 16.5652 76.7192 17.7441C77.6979 18.9879 78.718 20.2111 79.5669 21.5405C81.4359 24.4723 82.8811 27.7449 85.1133 30.355C87.3395 32.9577 90.3215 34.9127 92.9552 37.1702C93.7391 37.843 94.4669 38.5793 95.2833 39.3465C95.0943 37.9227 94.8817 36.5343 94.7282 35.1399C93.7568 26.3712 96.6326 19.1325 103.434 13.4962C108.784 9.06093 114.978 6.30327 121.627 4.4604C122.885 4.11219 123.738 4.50319 124.338 5.60095C127.758 11.8555 130.153 18.4435 130.581 25.6172C131.073 33.8282 128.031 40.5284 121.714 45.7722C117.197 49.5229 112.02 52.0341 106.5 53.9095C106.034 54.0673 105.567 54.2267 104.962 54.4333C105.14 54.9261 105.285 55.3776 105.462 55.8143C118.135 86.842 99.3017 122.414 66.5034 129.395C37.2377 135.621 8.87853 117.753 1.8249 88.5949C0.158191 81.7044 -0.0706308 74.7314 1.08677 67.7243C1.3333 66.2297 2.05225 65.6277 3.3248 65.8269C4.53534 66.0172 5.06237 66.8995 4.84388 68.3765C1.21225 93.0007 15.1158 115.992 38.5501 124.12C67.3537 134.109 99.2013 115.752 104.573 85.7886C108.218 65.4565 101.494 48.8028 85.5369 35.7951C85.1915 35.5132 84.8091 35.2742 84.4799 35.0396C84.3205 35.1075 84.2275 35.1267 84.1596 35.1798C82.4958 36.4974 80.835 37.8165 79.0915 39.2019C79.4237 39.4557 79.7322 39.7006 80.0511 39.9352C93.7066 50.0024 100.137 63.5074 98.7968 80.4164C97.1877 100.713 80.6977 117.535 60.3857 119.844C57.1689 120.21 53.8871 120.084 50.6393 120.018C49.9337 120.003 48.9579 119.437 48.6006 118.833C47.8344 117.538 48.9505 116.203 50.5877 116.239C52.712 116.288 54.8408 116.419 56.9622 116.349C75.2577 115.73 91.5114 101.448 94.5584 83.388C95.4486 78.1117 95.4103 72.8708 94.2469 67.4381C90.8855 69.3444 87.5757 71.0973 85.4085 74.3005C83.6798 76.8546 84.1109 79.7435 84.3456 82.5897C84.5375 84.9151 85.2048 87.3732 84.7043 89.5525C83.1882 96.1538 78.9144 100.605 72.5147 102.767C68.6853 104.061 65.4921 102.306 64.3849 98.4068C63.7501 96.1744 63.4814 93.7945 63.3692 91.4662C63.1478 86.8627 63.2423 82.243 63.0326 77.638C62.854 73.7325 62.4244 73.5362 58.561 74.0172C55.5184 74.3964 52.4404 74.9261 49.3993 74.8184C42.5021 74.575 37.8164 68.6067 38.7524 61.7309C39.3148 57.5996 41.5278 54.4539 44.5202 51.742C44.8509 51.4425 45.1919 51.1562 45.4916 50.8951L45.4901 50.898ZM93.1929 63.5399C90.1134 54.628 84.6866 47.621 76.9111 42.4022C75.9279 41.7427 75.2207 41.6601 74.1505 42.3299C67.9723 46.1986 61.3792 49.0699 54.1278 50.2577C53.5166 50.358 52.8419 50.4288 52.3356 50.7387C51.1058 51.4926 49.9411 52.3558 48.7837 53.2204C46.1721 55.1695 43.9149 57.4137 42.8919 60.6258C41.141 66.1264 44.7357 71.1238 50.4533 71.1061C51.6255 71.1032 52.8021 70.9895 53.9669 70.845C56.2979 70.5543 58.6171 70.1662 60.9511 69.8918C63.1537 69.6336 64.723 70.662 65.6663 72.589C66.0959 73.4683 66.5004 74.451 66.5565 75.4086C66.8119 79.7332 66.9123 84.0667 67.1249 88.3942C67.2533 91.0073 67.333 93.6366 67.7036 96.2202C68.1346 99.2213 69.7704 100.033 72.5561 98.7683C76.4889 96.9845 79.2244 94.0084 80.7184 89.9686C81.0653 89.0302 81.1436 87.9354 81.0934 86.9232C81.0255 85.5303 80.7346 84.1478 80.5117 82.7653C79.4355 76.1006 81.5791 70.8479 87.3454 67.1887C89.2483 65.9818 91.1674 64.8014 93.1914 63.5384L93.1929 63.5399ZM41.2355 45.9286C46.0629 47.2388 50.6408 47.1592 55.2069 46.1765C64.0055 44.282 71.6216 39.9456 78.7387 34.6147C79.003 34.417 79.2347 34.1735 79.5285 33.9079C79.2879 33.8164 79.1668 33.7486 79.0369 33.7235C73.7179 32.6759 68.4033 31.6136 63.074 30.6235C62.5912 30.5335 61.9328 30.8065 61.5003 31.1149C58.5197 33.2425 55.5775 35.4232 52.6234 37.5878C48.9091 40.3085 45.1963 43.0308 41.237 45.9316L41.2355 45.9286ZM27.9284 105.899C27.8767 102.388 27.0574 99.2759 25.2947 96.4577C24.2539 94.7934 24.0649 93.0553 24.6806 91.2685C25.2962 89.4831 26.0786 87.7539 26.8138 86.0099C27.7069 83.8926 28.6635 81.8004 29.5213 79.6683C30.004 78.4702 29.598 77.5407 28.3609 77.0582C27.5209 76.7306 26.6853 76.3544 25.8129 76.1537C22.8751 75.4765 20.8334 73.7561 19.5018 71.081C18.6972 69.4654 17.7864 67.9043 16.9168 66.3226C16.7116 65.9508 16.4754 65.5952 16.1964 65.1363C11.8916 79.1297 16.6983 96.4474 27.9284 105.898V105.899ZM57.0744 29.5833C56.76 29.4387 56.6064 29.3295 56.4381 29.2956C51.7023 28.366 46.9693 27.4173 42.2201 26.5556C41.6961 26.4597 40.9816 26.7283 40.5224 27.0588C36.3446 30.0643 32.2036 33.12 28.0524 36.1624C27.5991 36.4944 27.1577 36.8412 26.6588 37.2218C29.508 39.9013 32.5255 42.0865 35.8589 43.8526C36.6576 44.2761 37.1934 44.1846 37.9065 43.6549C42.725 40.0725 47.5805 36.5402 52.4241 32.9917C53.9447 31.8777 55.4653 30.7622 57.0759 29.5818L57.0744 29.5833ZM57.5394 25.6202C57.0419 24.9238 56.788 24.5593 56.5267 24.2023C52.6293 18.8861 48.7379 13.567 44.8287 8.25975C43.8972 6.99527 43.1133 5.08896 41.8865 4.71714C40.4412 4.27892 38.5619 5.09781 36.9159 5.53898C35.0794 6.03178 33.2946 6.71345 31.3371 7.36119C34.7738 12.0443 38.0704 16.4531 41.2621 20.937C42.1552 22.1927 43.1325 22.9038 44.6973 23.162C48.8722 23.8526 53.0161 24.7393 57.5409 25.6202H57.5394ZM106.367 49.6394C106.448 49.7265 106.53 49.8121 106.611 49.8991C108.341 49.1422 110.107 48.4532 111.797 47.6136C116.252 45.4004 120.306 42.6472 123.296 38.5675C125.085 36.127 126.199 33.4136 126.563 30.2178C122.42 31.9219 118.458 33.6556 114.414 35.168C112.618 35.8393 111.568 36.8559 110.895 38.6604C109.512 42.3668 107.889 45.9862 106.366 49.6409L106.367 49.6394ZM102.569 48.4458C102.663 48.3425 102.787 48.2584 102.836 48.1433C104.528 44.1123 106.233 40.0872 107.869 36.0341C108.038 35.615 107.907 34.9835 107.722 34.5291C105.979 30.2281 104.194 25.9418 102.417 21.6541C102.293 21.3546 102.127 21.0713 101.959 20.7364C96.4466 27.3952 97.8431 39.0234 102.57 48.4473L102.569 48.4458ZM23.6486 34.6589C28.0199 31.4557 32.0191 28.5239 36.3032 25.3826C28.8126 23.9219 21.6409 22.5246 14.4677 21.1259C14.3526 21.2587 14.2374 21.3915 14.1223 21.5243C17.2652 25.8577 20.4082 30.1927 23.6486 34.6589ZM110.219 30.5232C113.242 23.2904 116.124 16.3985 119.134 9.19668C113.65 11.2314 108.853 13.629 104.799 17.3988C106.586 21.7235 108.338 25.9684 110.219 30.5232ZM37.068 21.6349C33.9014 17.3177 30.8883 13.2085 27.8206 9.02405C23.2338 11.2889 19.0131 13.9728 14.8382 17.3059C22.3215 18.7637 29.4962 20.1609 37.068 21.6349ZM122.647 10.7105C119.747 17.6467 116.971 24.2849 114.067 31.2299C118.353 29.4623 122.312 27.8422 126.253 26.1779C126.489 26.0776 126.737 25.6217 126.716 25.3516C126.347 20.2908 124.88 15.5338 122.647 10.7105Z" fill="#5EA756"/>
<path d="M54.8201 131C44.5157 131 34.4505 128.133 25.6386 122.576C13.4844 114.913 4.89991 102.874 1.46758 88.6819C-0.194703 81.8091 -0.445669 74.7387 0.723539 67.6652C1.00403 65.9714 1.89865 65.2307 3.38231 65.4638C4.78919 65.6852 5.45499 66.7667 5.20993 68.431C4.32417 74.4362 4.47032 80.4355 5.64543 86.2592C6.79102 91.9353 8.8829 97.3134 11.8635 102.244C14.8441 107.174 18.6322 111.519 23.1201 115.158C27.7246 118.891 32.9565 121.79 38.6726 123.772C52.399 128.532 67.5957 126.975 80.3655 119.502C92.9965 112.109 101.689 99.7981 104.212 85.7251C105.999 75.7582 105.276 66.4908 102.064 58.1794C98.9045 50.0068 93.2666 42.5719 85.3066 36.0827C85.0807 35.8983 84.8327 35.7301 84.5935 35.5663C84.5389 35.5294 84.4858 35.4925 84.4326 35.4556C84.4105 35.4645 84.3883 35.4719 84.381 35.4763C82.9888 36.58 81.5878 37.6925 80.1367 38.8448L79.6923 39.1974C79.8872 39.3479 80.0776 39.4955 80.271 39.6386C94.1435 49.8666 100.502 63.5959 99.1658 80.4458C98.3819 90.3359 94.0151 99.8129 86.8699 107.134C79.7395 114.439 70.349 119.084 60.4284 120.211C57.532 120.54 54.5543 120.475 51.6756 120.411C51.3272 120.403 50.9803 120.396 50.6319 120.388C49.8022 120.372 48.7039 119.733 48.2831 119.022C47.9008 118.376 47.886 117.654 48.2433 117.043C48.6684 116.316 49.5365 115.872 50.5212 115.872C50.5463 115.872 50.5699 115.872 50.595 115.872C51.2165 115.887 51.8483 115.907 52.4595 115.928C53.9343 115.978 55.4578 116.031 56.9474 115.98C65.7061 115.683 74.332 112.186 81.2335 106.131C88.1307 100.08 92.7322 91.9811 94.1923 83.3259C95.0765 78.0865 95.0086 73.0699 93.9856 68.0076L93.866 68.0754C90.6994 69.8637 87.7085 71.5546 85.7096 74.507C84.1979 76.7424 84.4164 79.2226 84.6482 81.849C84.6688 82.0851 84.6895 82.3226 84.7102 82.5587C84.7648 83.2182 84.8607 83.9043 84.9523 84.5698C85.1885 86.2636 85.4321 88.0165 85.06 89.6351C83.5483 96.2171 79.2494 100.88 72.6283 103.116C70.6811 103.775 68.8402 103.696 67.3049 102.889C65.7401 102.066 64.6048 100.552 64.0246 98.5086C63.4636 96.5359 63.1271 94.2371 62.9957 91.4853C62.8835 89.1363 62.851 86.7476 62.8215 84.437C62.7919 82.212 62.7624 79.9132 62.6591 77.6572C62.5794 75.9161 62.4465 74.8965 61.9741 74.4967C61.5032 74.0998 60.5539 74.1426 58.6023 74.3846C58.0369 74.4554 57.47 74.5306 56.9016 74.6074C54.4362 74.9364 51.8882 75.2772 49.3815 75.1887C46.0554 75.0706 43.0822 73.6512 41.0095 71.1931C38.863 68.6479 37.9064 65.1805 38.3833 61.6837C38.8999 57.8858 40.7704 54.6412 44.2691 51.4704C44.4212 51.3332 44.5733 51.2004 44.7224 51.0706C44.092 50.9009 43.4587 50.7401 42.8416 50.5822C40.9431 50.0968 38.9797 49.5951 37.1284 48.8884C35.3111 48.1934 33.6134 47.3052 31.8168 46.3653C31.1126 45.9964 30.3863 45.6158 29.6526 45.2484C24.7868 49.1953 20.9869 54.1676 18.3576 60.0311C18.2764 60.2111 18.2764 60.5387 18.3547 60.6804C19.0101 61.843 19.6922 63.0175 20.3521 64.1536C21.2983 65.7825 22.2771 67.4675 23.1954 69.1511C24.1003 70.8095 25.2548 71.7258 26.9377 72.1197C27.9932 72.3676 29.1359 72.7955 30.432 73.4299C33.392 74.8788 34.542 77.4594 33.5913 80.5093C33.082 82.1397 32.3866 83.7332 31.7149 85.2721C31.4595 85.8564 31.1953 86.4613 30.9458 87.0589C30.5885 87.9146 30.2667 88.5875 29.9345 89.1762C28.4671 91.7775 28.4568 93.9257 29.8962 96.3618C31.8212 99.6166 32.521 103.493 31.9733 107.882C31.8788 108.645 32.0264 108.984 32.5845 109.278C33.6444 109.836 34.7132 110.419 35.7452 110.984C36.9705 111.652 38.2371 112.344 39.4964 112.996C41.1055 113.831 41.6148 114.922 41.0066 116.241C40.6567 117.001 39.7532 118.129 37.6318 117.164C22.0129 110.056 13.0047 98.1663 10.8552 81.8254C8.85485 66.6147 13.8196 53.4446 25.612 42.681C25.6607 42.6368 25.7094 42.594 25.7582 42.5497C25.8408 42.4759 25.9235 42.4036 26.0032 42.3254C25.9132 42.2089 25.8261 42.1012 25.7301 42.02C19.0662 36.3217 13.4948 29.0359 8.69541 19.7463C8.04142 18.4803 8.23186 17.356 9.24754 16.4914C19.8575 7.45409 29.7116 2.38141 40.2611 0.525259C45.5624 -0.407241 50.7249 -0.0973913 55.6069 1.44891C60.1701 2.8934 64.6461 5.46957 68.9111 9.10662C69.4544 9.56992 69.7644 10.1291 69.8042 10.7223C69.8441 11.3006 69.6286 11.8717 69.1798 12.3763C68.2645 13.4047 67.0717 13.446 65.9098 12.4914C62.29 9.51975 59.0186 7.54409 55.6143 6.27813C52.6957 5.19218 50.062 4.65364 47.387 4.60199C47.511 4.80266 47.6159 4.97086 47.734 5.13021C53.081 12.425 57.9011 18.9997 62.7477 25.5773C62.9263 25.8208 63.2998 26.3269 63.5758 26.3829C68.0475 27.2963 72.6047 28.1845 77.0099 29.0432C77.9887 29.2336 78.9675 29.4254 79.9462 29.6157L78.8656 28.0561C77.2343 25.7013 75.6045 23.3479 73.9718 20.9945C73.8876 20.8735 73.7916 20.7555 73.6883 20.6315C73.616 20.5445 73.5451 20.4574 73.4772 20.3689C72.8778 19.5854 72.618 18.8536 72.7081 18.1926C72.7804 17.6511 73.0816 17.1775 73.5997 16.7835C74.7276 15.9263 75.9721 16.1933 77.0114 17.5139C77.193 17.744 77.3746 17.9727 77.5576 18.2029C78.3548 19.2048 79.1786 20.2405 79.8798 21.3413C80.5338 22.3667 81.1435 23.4468 81.734 24.4914C82.8294 26.4316 83.9617 28.4368 85.3966 30.1144C86.8921 31.8643 88.7832 33.3531 90.6108 34.7917C91.47 35.4674 92.3572 36.1683 93.1987 36.8883C93.739 37.3516 94.2439 37.8371 94.7783 38.3505C94.7651 38.2502 94.7503 38.1499 94.737 38.0495C94.6056 37.1082 94.4713 36.1358 94.365 35.1782C93.3788 26.2782 96.352 18.8875 103.202 13.2099C108.111 9.14055 114.107 6.16157 121.533 4.10181C122.943 3.71081 123.967 4.14312 124.667 5.42088C128.507 12.4412 130.563 19.0395 130.956 25.5921C131.447 33.8046 128.42 40.6877 121.957 46.054C117.848 49.4638 112.833 52.1477 106.625 54.2576L105.441 54.6604C105.455 54.7003 105.468 54.7386 105.483 54.777C105.592 55.0898 105.695 55.3863 105.812 55.6726C111.894 70.5631 111.003 87.3732 103.369 101.793C95.735 116.211 82.3289 126.402 66.5889 129.753C62.6724 130.587 58.7322 130.999 54.8289 130.999L54.8201 131ZM2.88628 66.1603C2.07285 66.1603 1.63588 66.6664 1.45134 67.7862C0.299849 74.7608 0.546386 81.7339 2.18505 88.5093C5.57309 102.514 14.0425 114.392 26.0328 121.954C38.0201 129.513 52.365 132.027 66.428 129.035C81.954 125.731 95.1769 115.677 102.709 101.451C110.241 87.2241 111.121 70.6428 105.121 55.9544C104.997 55.6505 104.891 55.345 104.777 55.0219C104.724 54.8714 104.671 54.718 104.613 54.5586C104.579 54.4657 104.585 54.3624 104.628 54.2738C104.671 54.1853 104.748 54.116 104.842 54.085L106.38 53.5627C112.502 51.4822 117.441 48.8411 121.478 45.4903C127.751 40.2834 130.689 33.6054 130.212 25.6408C129.827 19.2003 127.798 12.7023 124.013 5.77942C123.481 4.80856 122.798 4.51937 121.725 4.81741C114.401 6.84767 108.494 9.77944 103.668 13.7824C100.339 16.543 97.9302 19.7389 96.5085 23.2845C95.0928 26.8153 94.6174 30.7917 95.0943 35.103C95.1991 36.0503 95.3275 36.9739 95.4648 37.9536C95.5268 38.4007 95.5888 38.8492 95.6493 39.3022C95.67 39.4571 95.5903 39.6076 95.4515 39.6785C95.3127 39.7493 95.1444 39.7257 95.0308 39.6194C94.7695 39.373 94.5156 39.131 94.2675 38.892C93.739 38.3845 93.2401 37.9049 92.7145 37.4534C91.8848 36.7423 91.0035 36.0473 90.1502 35.376C88.2945 33.9138 86.3754 32.4029 84.8327 30.5984C83.352 28.8676 82.202 26.8285 81.0889 24.8588C80.5043 23.823 79.899 22.7518 79.2553 21.7426C78.5748 20.6758 77.7628 19.6548 76.9774 18.6662C76.7944 18.436 76.6113 18.2059 76.4297 17.9742C75.6429 16.9724 74.8398 16.7717 74.0456 17.3752C73.6839 17.6496 73.4846 17.9506 73.4388 18.2959C73.3768 18.7547 73.5864 19.3036 74.0633 19.9248C74.1268 20.0074 74.1917 20.0871 74.2581 20.1668C74.3659 20.2966 74.4752 20.4309 74.577 20.577C76.2098 22.9303 77.8411 25.2837 79.4723 27.6386L80.8025 29.5596C80.9014 29.7028 80.8866 29.8975 80.767 30.0244L80.5013 30.3048C80.4142 30.3962 80.2858 30.4376 80.1632 30.4125C79.0649 30.1985 77.968 29.9831 76.8697 29.7692C72.4615 28.9104 67.9043 28.0207 63.4282 27.1074C62.9159 27.0026 62.5174 26.5113 62.1542 26.017C57.3076 19.4379 52.4876 12.8632 47.1405 5.56843C46.9811 5.35154 46.8438 5.12579 46.6829 4.86463C46.6017 4.73184 46.5131 4.58872 46.4127 4.42936C46.3404 4.31575 46.3359 4.17411 46.4009 4.05607C46.4644 3.93803 46.5869 3.86426 46.7212 3.86278C49.7195 3.8318 52.6278 4.38067 55.8727 5.58761C59.3552 6.88455 62.6945 8.8971 66.3793 11.9233C67.2296 12.6212 67.9869 12.6094 68.6306 11.8879C68.9436 11.5352 69.0956 11.1516 69.0705 10.7754C69.044 10.3844 68.824 10.0022 68.4342 9.67025C64.2446 6.09813 59.8542 3.56916 55.387 2.15418C50.6201 0.644772 45.5756 0.3423 40.3925 1.25414C29.9774 3.08668 20.234 8.10625 9.73028 17.0506C8.9759 17.6924 8.8578 18.4405 9.3553 19.4054C14.1104 28.608 19.6257 35.8216 26.2143 41.4564C26.3767 41.5951 26.5037 41.7589 26.6174 41.9049C26.6631 41.964 26.7089 42.0215 26.7547 42.0761C26.8668 42.2074 26.8728 42.3992 26.7679 42.5364C26.7369 42.5778 26.7118 42.6132 26.6882 42.6456C26.638 42.7164 26.5893 42.7843 26.5244 42.8478C26.4358 42.9348 26.3442 43.016 26.2512 43.0986C26.2055 43.1399 26.1597 43.1797 26.1139 43.2211C14.5104 53.8135 9.62546 66.7682 11.5919 81.725C13.7044 97.7974 22.5709 109.493 37.9418 116.489C39.7104 117.294 40.1843 116.266 40.3408 115.928C40.6479 115.263 40.7468 114.47 39.1598 113.647C37.8946 112.99 36.6235 112.297 35.3953 111.627C34.3648 111.065 33.299 110.484 32.2449 109.927C31.1982 109.375 31.1525 108.536 31.2455 107.788C31.771 103.565 31.1052 99.8453 29.2643 96.735C27.6936 94.0792 27.7024 91.6358 29.2953 88.8117C29.6127 88.2496 29.9213 87.6004 30.2682 86.7726C30.5191 86.1706 30.7849 85.5628 31.0417 84.9755C31.7061 83.4543 32.3925 81.88 32.89 80.2879C33.7227 77.6217 32.7099 75.3643 30.1117 74.0909C28.8672 73.4816 27.7748 73.0714 26.7738 72.8368C24.8945 72.3971 23.5526 71.3377 22.5517 69.5037C21.6379 67.829 20.6621 66.1485 19.7173 64.524C19.0559 63.3864 18.3724 62.2089 17.7154 61.0433C17.4925 60.6479 17.5339 60.071 17.6874 59.7301C20.3993 53.6851 24.3321 48.5697 29.378 44.5254C29.4902 44.4354 29.6437 44.4191 29.7722 44.4826C30.5856 44.8854 31.3872 45.3059 32.1622 45.7117C33.9397 46.6427 35.6167 47.5206 37.3941 48.1993C39.2055 48.8913 41.0627 49.3664 43.0276 49.8681C43.8676 50.082 44.7357 50.3048 45.5904 50.5438C45.7218 50.5807 45.8207 50.6855 45.8517 50.8183C45.8812 50.9511 45.837 51.0883 45.7336 51.1783C45.6406 51.2594 45.5417 51.3435 45.4413 51.4291C45.2199 51.6195 44.991 51.8157 44.7667 52.0193C41.4037 55.0662 39.6086 58.1691 39.117 61.7855C38.6682 65.0773 39.5657 68.3336 41.5764 70.7195C43.5133 73.0168 46.2946 74.3432 49.411 74.4539C51.8542 74.541 54.3728 74.2045 56.8071 73.8785C57.377 73.8017 57.9453 73.7265 58.5137 73.6557C60.4683 73.4122 61.7098 73.3089 62.4524 73.9345C63.1403 74.5144 63.3057 75.5871 63.3987 77.6247C63.502 79.8925 63.533 82.1987 63.5626 84.4296C63.5936 86.7343 63.6246 89.1157 63.7368 91.4528C63.8667 94.1485 64.1944 96.3927 64.7391 98.3108C65.2632 100.155 66.27 101.514 67.6533 102.24C69.0056 102.95 70.6457 103.013 72.3966 102.422C78.7623 100.27 82.8929 95.7937 84.344 89.4742C84.6851 87.9884 84.4518 86.3049 84.2245 84.676C84.13 84.0017 84.034 83.3038 83.9779 82.6251C83.9587 82.3905 83.9381 82.1544 83.9174 81.9198C83.6842 79.2802 83.4435 76.5506 85.1028 74.0998C87.1992 71.0028 90.2624 69.272 93.5073 67.4395L94.0653 67.1237C94.1672 67.0662 94.2912 67.0603 94.3989 67.1075C94.5067 67.1562 94.5835 67.2521 94.6086 67.3672C95.7482 72.6892 95.8516 77.9523 94.923 83.4558C93.4349 92.2776 88.7463 100.53 81.7222 106.692C74.6922 112.859 65.9039 116.421 56.9739 116.723C55.4593 116.775 53.9225 116.723 52.4344 116.67C51.8262 116.65 51.1958 116.627 50.5787 116.614C49.8288 116.598 49.1822 116.906 48.881 117.42C48.6596 117.797 48.6729 118.236 48.9194 118.65C49.2132 119.145 50.0679 119.642 50.6481 119.654C50.9965 119.661 51.3434 119.668 51.6933 119.676C54.547 119.739 57.4995 119.804 60.3458 119.481C70.098 118.373 79.3306 113.805 86.3429 106.621C93.367 99.4234 97.6615 90.1072 98.4306 80.3897C99.0891 72.0799 97.8387 64.4694 94.7149 57.7692C91.6191 51.1326 86.6131 45.2336 79.834 40.2362C79.617 40.0754 79.403 39.9101 79.183 39.7404C79.0797 39.6607 78.9763 39.5811 78.87 39.4984C78.78 39.4291 78.7268 39.3229 78.7253 39.2092C78.7253 39.0956 78.7755 38.9879 78.8641 38.9171L79.6775 38.2708C81.1287 37.1185 82.5297 36.0045 83.9336 34.8935C84.0222 34.8241 84.1152 34.7887 84.2053 34.7563C84.2422 34.743 84.2865 34.7268 84.3381 34.7046C84.4562 34.6545 84.592 34.6692 84.6969 34.743C84.7973 34.8138 84.9021 34.8861 85.0098 34.9599C85.2623 35.131 85.5221 35.3096 85.7731 35.5132C102.095 48.819 108.543 65.7575 104.94 85.8578C102.378 100.143 93.5575 112.639 80.7405 120.14C67.7832 127.724 52.3621 129.302 38.432 124.471C32.6346 122.46 27.3274 119.521 22.6565 115.733C18.1022 112.04 14.2595 107.631 11.2346 102.628C8.20972 97.6248 6.08684 92.1684 4.92353 86.4082C3.73218 80.5004 3.58308 74.417 4.48065 68.3263C4.76114 66.4288 3.6377 66.2532 3.26863 66.1942C3.13282 66.1735 3.00733 66.1617 2.88775 66.1617L2.88628 66.1603ZM27.9283 106.268C27.8427 106.268 27.7585 106.239 27.6906 106.181C22.2299 101.585 18.0358 94.8877 15.8819 87.323C13.7443 79.8158 13.7295 71.8984 15.8435 65.0286C15.8863 64.8899 16.0059 64.7896 16.1506 64.7704C16.2938 64.7527 16.4355 64.8205 16.5123 64.9445C16.6038 65.095 16.6909 65.2337 16.7736 65.365C16.9404 65.6335 17.0998 65.8858 17.2416 66.144C17.4778 66.5749 17.7184 67.0042 17.9575 67.4321C18.5894 68.5638 19.2449 69.7339 19.8339 70.9157C21.1507 73.5612 23.1348 75.1562 25.8969 75.7936C26.61 75.9589 27.2964 76.2348 27.9593 76.5004C28.1379 76.5727 28.3165 76.6435 28.4952 76.7143C29.2097 76.9932 29.6939 77.4108 29.9301 77.9596C30.1634 78.4982 30.1412 79.1194 29.8637 79.8055C29.3411 81.1024 28.7742 82.4052 28.225 83.6638C27.8707 84.4783 27.5031 85.3208 27.1532 86.1515C26.9938 86.5307 26.8314 86.9084 26.669 87.2861C26.0977 88.6199 25.5057 90.001 25.0289 91.3864C24.4472 93.0759 24.6421 94.7151 25.6076 96.2599C27.3629 99.0663 28.2427 102.218 28.2974 105.892C28.2988 106.036 28.2176 106.169 28.0863 106.231C28.0361 106.255 27.9814 106.267 27.9283 106.267V106.268ZM16.3174 66.0319C14.4809 72.5801 14.5725 80.0341 16.592 87.1209C18.6219 94.2503 22.4927 100.589 27.5326 105.069C27.3673 101.889 26.5303 99.1283 24.9831 96.6539C23.8936 94.9114 23.6751 93.0596 24.3336 91.1504C24.8193 89.7398 25.4157 88.347 25.9929 87.0013C26.1538 86.6251 26.3162 86.2474 26.4756 85.8696C26.8285 85.0345 27.1961 84.1906 27.5504 83.3731C28.0966 82.119 28.662 80.8221 29.1802 79.5325C29.3809 79.0353 29.4046 78.6059 29.254 78.2547C29.0975 77.8947 28.7535 77.6085 28.228 77.4049C28.0464 77.334 27.8648 77.2617 27.6832 77.188C27.047 76.9312 26.3885 76.6671 25.7316 76.5151C22.7407 75.8246 20.5956 74.1027 19.1725 71.2477C18.5909 70.0806 17.9413 68.9194 17.3139 67.7951C17.0733 67.3643 16.8326 66.9349 16.5949 66.5026C16.5093 66.3476 16.4178 66.1957 16.3189 66.0334L16.3174 66.0319ZM70.346 99.7066C69.8515 99.7066 69.4115 99.6019 69.0292 99.3924C68.136 98.9025 67.5662 97.852 67.3389 96.2703C67.017 94.0334 66.9107 91.7361 66.8089 89.5155C66.7912 89.1467 66.7749 88.7778 66.7572 88.4104C66.6686 86.6044 66.5993 84.7675 66.5313 82.9925C66.4369 80.5122 66.3394 77.9478 66.1903 75.4292C66.1342 74.4878 65.7046 73.5022 65.337 72.7497C64.4158 70.8655 62.9558 70.026 60.9968 70.2562C59.7405 70.4037 58.4635 70.5882 57.2293 70.7667C56.1782 70.9187 55.0902 71.0751 54.0155 71.2093C52.5776 71.3893 51.4807 71.4705 50.4577 71.4734H50.4267C47.6218 71.4734 45.1416 70.2827 43.6152 68.2038C42.0547 66.0791 41.665 63.2757 42.5434 60.5136C43.689 56.9149 46.364 54.5675 48.5651 52.9238C49.5837 52.1639 50.8518 51.2181 52.1451 50.4243C52.6485 50.1145 53.2788 50.0171 53.8339 49.93C53.9136 49.9182 53.9919 49.905 54.0701 49.8932C60.7296 48.8013 67.234 46.2251 73.9555 42.0156C75.104 41.297 75.9618 41.3177 77.1177 42.0938C84.9434 47.3465 90.4691 54.5217 93.5427 63.4174C93.5988 63.5797 93.5353 63.7597 93.3892 63.8511C92.744 64.254 92.1078 64.6479 91.4803 65.0374C90.1222 65.8814 88.8393 66.6782 87.5446 67.4985C84.7663 69.2617 82.8013 71.4469 81.703 73.995C80.6253 76.4945 80.3478 79.4262 80.8778 82.7062C80.9294 83.0235 80.984 83.3407 81.0387 83.6594C81.2217 84.7173 81.4107 85.8106 81.4638 86.9054C81.5244 88.1448 81.39 89.219 81.0652 90.0954C79.527 94.2548 76.7161 97.2854 72.7095 99.1032C71.8223 99.506 71.031 99.7081 70.346 99.7081V99.7066ZM61.6094 69.4816C63.5434 69.4816 65.0506 70.4893 65.9984 72.4251C66.397 73.2396 66.862 74.3123 66.9255 75.3849C67.0746 77.9109 67.1735 80.4797 67.268 82.963C67.3359 84.7365 67.4053 86.5705 67.4939 88.3735C67.5116 88.7424 67.5293 89.1113 67.5455 89.4801C67.6474 91.6845 67.7537 93.9626 68.0696 96.164C68.2615 97.5038 68.7044 98.3728 69.3835 98.7446C70.0833 99.1283 71.1004 99.022 72.404 98.4304C76.2245 96.6982 78.9055 93.8077 80.3729 89.8387C80.6622 89.0552 80.7818 88.0799 80.7257 86.9394C80.674 85.8903 80.4895 84.8191 80.3109 83.7833C80.2562 83.4632 80.2001 83.143 80.1485 82.8228C79.0309 75.8984 81.3856 70.5336 87.149 66.8759C88.4466 66.0526 89.731 65.2543 91.0906 64.4104C91.6368 64.071 92.1875 63.7287 92.747 63.3805C91.2382 59.1016 89.1434 55.2093 86.5215 51.8083C83.8524 48.3483 80.55 45.2853 76.7058 42.7046C75.7935 42.0923 75.2428 42.0776 74.3467 42.6383C67.5396 46.8994 60.9466 49.5095 54.1882 50.6176C54.1085 50.6309 54.0273 50.6427 53.9461 50.656C53.4353 50.7357 52.9068 50.8183 52.5304 51.0499C51.2652 51.826 50.0119 52.7615 49.005 53.5125C44.9807 56.5151 43.813 58.9496 43.2446 60.7349C42.4371 63.2698 42.7884 65.8327 44.2086 67.7656C45.5934 69.6527 47.858 70.7342 50.4252 70.7342H50.4533C51.4453 70.7313 52.5156 70.6516 53.9225 70.476C54.9898 70.3432 56.0734 70.1868 57.1216 70.0349C58.3602 69.8563 59.6416 69.6719 60.9082 69.5229C61.1474 69.4948 61.3806 69.4816 61.6094 69.4816ZM106.614 50.2665C106.513 50.2665 106.416 50.2266 106.345 50.1499L106.101 49.8902C106.002 49.784 105.973 49.6305 106.029 49.4963C106.473 48.4295 106.934 47.348 107.38 46.3019C108.459 43.7685 109.575 41.1465 110.552 38.5291C111.255 36.6449 112.373 35.5368 114.289 34.8197C117.148 33.7515 119.913 32.5932 122.841 31.3671C124.009 30.8772 125.218 30.3726 126.425 29.8754C126.546 29.8252 126.684 29.8429 126.788 29.9226C126.893 30.0008 126.948 30.1292 126.933 30.259C126.573 33.4254 125.482 36.214 123.597 38.7858C120.939 42.411 117.243 45.3221 111.964 47.9441C110.793 48.5254 109.571 49.0418 108.39 49.5405C107.855 49.7663 107.302 49.9994 106.761 50.2355C106.714 50.2561 106.664 50.2665 106.614 50.2665ZM126.118 30.799C125.108 31.2166 124.104 31.6371 123.127 32.0458C120.192 33.2749 117.42 34.4361 114.549 35.5102C112.832 36.1521 111.874 37.1008 111.246 38.7858C110.263 41.4195 109.144 44.0473 108.06 46.5896C107.671 47.5044 107.269 48.4457 106.878 49.3812C107.288 49.2041 107.702 49.03 108.103 48.8603C109.274 48.366 110.486 47.8541 111.636 47.2816C116.806 44.7128 120.417 41.874 123.002 38.3476C124.683 36.0532 125.706 33.5788 126.118 30.799ZM102.572 48.8116C102.555 48.8116 102.538 48.8116 102.521 48.8087C102.4 48.7924 102.296 48.7172 102.241 48.608C99.7888 43.7183 98.3022 38.3771 98.0571 33.5685C97.784 28.2066 99.0344 23.6858 101.675 20.4973C101.755 20.4014 101.878 20.3527 102.002 20.366C102.126 20.3807 102.234 20.456 102.29 20.5666C102.344 20.6743 102.397 20.7761 102.449 20.875C102.561 21.0889 102.668 21.2911 102.759 21.5095L103.497 23.2874C105.004 26.9215 106.563 30.6781 108.066 34.3859C108.168 34.6368 108.48 35.5088 108.214 36.1683C106.834 39.5884 105.381 43.044 103.976 46.386L103.178 48.2819C103.115 48.4339 103.006 48.5342 102.919 48.6154C102.893 48.639 102.867 48.6626 102.843 48.6892C102.772 48.7674 102.673 48.8102 102.57 48.8102L102.572 48.8116ZM101.897 21.4091C99.6146 24.4265 98.5443 28.6021 98.7953 33.5316C99.0256 38.054 100.381 43.0647 102.622 47.708L103.296 46.1027C104.7 42.7622 106.152 39.3096 107.53 35.8939C107.635 35.6342 107.576 35.1399 107.384 34.6648C105.883 30.9599 104.324 27.2033 102.817 23.5722L102.079 21.7942C102.027 21.6688 101.963 21.5419 101.897 21.4106V21.4091ZM48.5754 47.2771C46.051 47.2771 43.5871 46.9452 41.1409 46.2827C41.0036 46.2458 40.9003 46.1336 40.8752 45.9935C40.8486 45.8548 40.9062 45.7117 41.0199 45.629L52.4064 37.2852C53.1002 36.7762 53.7941 36.2672 54.4879 35.7581C56.7082 34.1262 59.0053 32.4398 61.2876 30.8108C61.7482 30.4818 62.51 30.1395 63.1433 30.2575C67.5086 31.0676 71.936 31.9425 76.2186 32.788C77.1826 32.9783 78.1467 33.1687 79.1107 33.359C79.2317 33.3826 79.335 33.4269 79.4561 33.477C79.5152 33.5021 79.5816 33.5301 79.6643 33.5611C79.7838 33.6069 79.8724 33.7116 79.896 33.8385C79.9197 33.9654 79.8754 34.0938 79.7809 34.1794C79.6864 34.2649 79.5978 34.3476 79.5122 34.4287C79.3306 34.5999 79.1579 34.7622 78.9645 34.9082C70.6162 41.1613 63.0946 44.8559 55.2895 46.5365C52.9895 47.0322 50.7618 47.2801 48.5784 47.2801L48.5754 47.2771ZM42.0857 45.7633C46.2872 46.7814 50.5625 46.7961 55.1316 45.8135C62.8274 44.1565 70.2589 40.5032 78.5187 34.3166C78.6235 34.2384 78.7239 34.1513 78.8287 34.0539C77.9104 33.8725 76.9922 33.6924 76.074 33.511C71.7943 32.6655 67.3684 31.792 63.0075 30.9835C62.6473 30.9171 62.0848 31.1487 61.7157 31.4128C59.4378 33.0388 57.1437 34.7238 54.9249 36.3542C54.231 36.8632 53.5372 37.3738 52.8433 37.8828L42.0857 45.7648V45.7633ZM36.7697 44.49C36.4287 44.49 36.0788 44.3852 35.6891 44.1786C32.3453 42.4066 29.3101 40.2185 26.4077 37.4903C26.328 37.4165 26.2867 37.3103 26.2926 37.2026C26.2985 37.0949 26.3516 36.9946 26.4373 36.9282C26.5996 36.8042 26.7576 36.6832 26.9097 36.5667C27.2285 36.3217 27.5282 36.0916 27.8368 35.8658C28.662 35.2609 29.4858 34.6559 30.311 34.051C33.5795 31.6504 36.9601 29.1686 40.3098 26.7607C40.8221 26.3933 41.6325 26.0746 42.2895 26.1941C46.2237 26.9082 50.2126 27.6932 54.0701 28.453C54.8835 28.6139 55.6985 28.7732 56.5134 28.934C56.6728 28.965 56.8057 29.0344 56.9607 29.1141C57.036 29.1539 57.1245 29.1982 57.2323 29.2483C57.3504 29.3029 57.4316 29.4165 57.4449 29.5464C57.4582 29.6762 57.4021 29.8031 57.2958 29.8813L52.644 33.2911C51.4483 34.1661 50.2525 35.041 49.0567 35.916C45.4679 38.5409 41.7565 41.2543 38.1279 43.9529C37.6422 44.3144 37.2126 44.4914 36.7682 44.4914L36.7697 44.49ZM27.233 37.2498C29.9892 39.795 32.8723 41.8503 36.036 43.5265C36.6752 43.8658 37.062 43.826 37.6894 43.3583C41.3196 40.6582 45.0324 37.9433 48.6227 35.3184C49.8185 34.4435 51.0142 33.57 52.2085 32.6936L56.3569 29.6526C55.5479 29.4932 54.7374 29.3339 53.9284 29.1745C50.0738 28.4147 46.0879 27.6297 42.1596 26.9171C41.792 26.8507 41.1837 27.0395 40.7423 27.3568C37.3956 29.7633 34.0179 32.2435 30.7494 34.6427C29.9242 35.2476 29.1004 35.854 28.2752 36.4575C27.9741 36.6788 27.6758 36.906 27.3614 37.148C27.3186 37.1805 27.2758 37.2129 27.233 37.2454V37.2498ZM23.653 35.0278C23.6338 35.0278 23.6146 35.0278 23.5954 35.0233C23.498 35.0086 23.4109 34.9555 23.3533 34.8758L13.8269 21.7411C13.7265 21.6024 13.7339 21.4121 13.8476 21.2822L14.193 20.8839C14.2801 20.7835 14.413 20.7378 14.5429 20.7643L36.3785 25.0211C36.5217 25.0491 36.6353 25.1598 36.6678 25.3029C36.7003 25.446 36.6442 25.5936 36.5261 25.6806L23.8715 34.9569C23.808 35.0041 23.7312 35.0278 23.653 35.0278ZM14.5975 21.5449L23.7342 34.1425L35.41 25.5832L14.6123 21.5286L14.599 21.5449H14.5975ZM114.072 31.5988C113.976 31.5988 113.881 31.5604 113.81 31.4896C113.706 31.3833 113.673 31.2255 113.731 31.0868L122.311 10.5673C122.367 10.4331 122.498 10.3431 122.644 10.3401C122.789 10.3357 122.925 10.4213 122.987 10.5541C125.438 15.8466 126.741 20.5401 127.09 25.3236C127.118 25.7175 126.806 26.3461 126.402 26.5172C123.182 27.8761 119.956 29.2041 116.542 30.6117L114.213 31.5707C114.168 31.5899 114.12 31.5988 114.073 31.5988H114.072ZM122.665 11.6341L114.757 30.5497L116.26 29.93C119.673 28.5239 122.897 27.1974 126.114 25.8385C126.208 25.7883 126.362 25.4947 126.353 25.3782C126.028 20.9178 124.853 16.5312 122.665 11.6326V11.6341ZM110.223 30.892C110.074 30.892 109.94 30.802 109.884 30.6633L104.464 17.539C104.405 17.3973 104.441 17.2335 104.554 17.1288C108.159 13.775 112.618 11.2224 119.011 8.84988C119.149 8.79824 119.304 8.83366 119.406 8.93989C119.507 9.04612 119.537 9.20252 119.479 9.33827L110.564 30.6648C110.507 30.802 110.372 30.892 110.223 30.892ZM105.244 17.4947L110.226 29.5611L118.47 9.84288C112.705 12.0531 108.59 14.436 105.245 17.4947H105.244ZM57.5438 25.989C57.5202 25.989 57.4966 25.986 57.4729 25.9816C56.1635 25.7264 54.8762 25.4696 53.6302 25.2203C50.53 24.6006 47.6011 24.0148 44.6397 23.525C43.0616 23.2638 41.9617 22.5541 40.9638 21.1494C38.6623 17.9137 36.3386 14.7636 33.8777 11.4275C32.9432 10.1601 31.9984 8.87939 31.0432 7.57803C30.9738 7.4836 30.9532 7.35966 30.9886 7.24752C31.024 7.13538 31.1126 7.04686 31.2233 7.00997C31.8242 6.81078 32.4147 6.60569 32.986 6.40798C34.2984 5.95353 35.5399 5.52417 36.8214 5.18038C37.1668 5.08743 37.5167 4.97972 37.8887 4.8661C39.2956 4.43379 40.7512 3.98525 41.9957 4.36297C43.0114 4.67134 43.7082 5.80156 44.3813 6.89488C44.6353 7.30801 44.8759 7.69754 45.1283 8.03985C48.1119 12.0886 51.1323 16.2125 54.0554 20.2007L56.8278 23.9838C56.9976 24.2155 57.1629 24.4486 57.3932 24.7732C57.5202 24.9517 57.6663 25.1568 57.8435 25.4047C57.9306 25.5272 57.935 25.691 57.8538 25.8178C57.7844 25.9241 57.6678 25.9875 57.5438 25.9875V25.989ZM31.9334 7.54999C32.7867 8.71119 33.6311 9.85616 34.4682 10.9908C36.9306 14.3298 39.2557 17.4829 41.5617 20.723C42.4474 21.9683 43.3731 22.5688 44.7563 22.7975C47.7295 23.2889 50.6644 23.8761 53.7704 24.4973C54.7256 24.6876 55.7058 24.8839 56.7023 25.0801C56.5178 24.8204 56.3746 24.6198 56.2284 24.4206L53.456 20.6375C50.5345 16.6492 47.5125 12.5268 44.5305 8.47807C44.2588 8.11067 44.0005 7.68869 43.7495 7.28146C43.1487 6.30469 42.5271 5.29547 41.7787 5.06824C40.7497 4.75544 39.4048 5.17005 38.1028 5.57138C37.7411 5.68204 37.3676 5.79713 37.0088 5.89303C35.7511 6.23092 34.5243 6.65585 33.2237 7.10587C32.8029 7.25195 32.3719 7.40097 31.9319 7.54999H31.9334ZM37.0679 22.0037C37.0443 22.0037 37.0207 22.0008 36.997 21.9964L14.7673 17.6673C14.6256 17.6393 14.5134 17.5331 14.4794 17.3929C14.4455 17.2527 14.4957 17.1066 14.6079 17.0166C18.7636 13.6998 23.0315 10.976 27.6567 8.69201C27.8176 8.61233 28.0124 8.65955 28.1173 8.80414L37.3646 21.415C37.4547 21.5375 37.4606 21.7027 37.3779 21.8311C37.31 21.9388 37.1904 22.0023 37.0664 22.0023L37.0679 22.0037ZM15.6974 17.0978L36.2131 21.0934L27.7068 9.49319C23.4685 11.609 19.5298 14.1026 15.6974 17.0978Z" fill="#5EA756"/>
</g>
<defs>
<clipPath id="clip0_1_1151">
<rect width="131" height="131" fill="white"/>
</clipPath>
</defs>
</svg>
