<svg width="15" height="20" viewBox="0 0 15 20" fill="none" xmlns="http://www.w3.org/2000/svg">
<g clip-path="url(#clip0_1_97)">
<path d="M7.10362 0C7.37334 0 7.64357 0 7.91329 0C8.25907 0.0458984 8.60839 0.0756836 8.9501 0.140625C10.3301 0.404785 11.5566 0.97998 12.5756 1.9165C14.5793 3.75879 15.357 6.00488 14.8495 8.63525C14.5899 9.98047 14.0104 11.2188 13.3554 12.4224C11.9835 14.9424 10.2374 17.2144 8.33714 19.3818C8.14803 19.5977 7.98529 19.8472 7.68362 19.9458C7.67399 19.9487 7.6745 19.9814 7.67044 20H7.34647C7.33684 19.9775 7.33329 19.9478 7.31605 19.9346C7.16243 19.813 6.98143 19.7148 6.85418 19.5723C5.1091 17.6201 3.50901 15.5649 2.1746 13.3286C1.4283 12.0781 0.779344 10.7837 0.353467 9.39307C-0.160628 7.71338 -0.141869 6.04639 0.594797 4.44189C1.72489 1.97998 3.69356 0.515625 6.46531 0.0791016C6.67673 0.0458984 6.89068 0.0258789 7.10362 0V0ZM7.51023 10.8682C9.58638 10.8652 11.2767 9.23486 11.2798 7.23242C11.2828 5.22461 9.57168 3.57813 7.49604 3.59082C5.41481 3.60352 3.73057 5.2373 3.73665 7.23633C3.74325 9.24072 5.43763 10.8716 7.51023 10.8682V10.8682Z" fill="white"/>
</g>
<defs>
<clipPath id="clip0_1_97">
<rect width="15" height="20" fill="white"/>
</clipPath>
</defs>
</svg>
