<svg width="15" height="11" viewBox="0 0 15 11" fill="none" xmlns="http://www.w3.org/2000/svg">
<g clip-path="url(#clip0_1_101)">
<path d="M15 3.09159V9.82979C14.9945 9.83745 14.9859 9.84435 14.9835 9.85277C14.7847 10.6304 14.3018 11 13.4826 11C9.49367 11 5.50513 11 1.51619 11C1.46727 11 1.41834 11.0008 1.36981 10.9989C0.58314 10.9717 0.00233353 10.3925 0.00155077 9.62256C-0.00118888 7.48209 0.000376635 5.34123 0.00115939 3.20037C0.00115939 3.1659 0.00820422 3.13181 0.0129008 3.09082C0.0391232 3.10499 0.0524301 3.11074 0.0645628 3.11878C2.09034 4.44068 4.11573 5.76258 6.14151 7.08448C7.05029 7.67744 7.95007 7.67859 8.85964 7.08525C10.6705 5.90469 12.4803 4.72299 14.2912 3.54243C14.526 3.3896 14.764 3.24136 15.0004 3.0912L15 3.09159Z" fill="white"/>
<path d="M15.0002 1.5433C14.9442 1.68963 14.9145 1.85319 14.8264 1.97768C14.7067 2.14699 14.5654 2.31974 14.3936 2.43312C12.3572 3.77341 10.3158 5.10603 8.27004 6.43291C7.76555 6.76004 7.23328 6.75889 6.72879 6.43177C4.67953 5.10182 2.63496 3.76498 0.590397 2.42776C0.0996074 2.10677 -0.103518 1.55058 0.0526418 0.995926C0.211933 0.429397 0.708202 0.0425184 1.32619 0.00306439C1.37002 0.000383048 1.41386 0 1.45808 0C5.48577 0 9.51345 0 13.5415 0C14.2088 0 14.7301 0.34934 14.9274 0.925445C14.9548 1.00588 14.9763 1.08862 15.0002 1.17021V1.54292V1.5433Z" fill="white"/>
</g>
<defs>
<clipPath id="clip0_1_101">
<rect width="15" height="11" fill="white"/>
</clipPath>
</defs>
</svg>
