<svg width="30" height="28" viewBox="0 0 30 28" fill="none" xmlns="http://www.w3.org/2000/svg">
<path d="M15.3364 6.82115C11.1745 6.82115 7.81742 10.0263 7.81742 14C7.81742 17.9737 11.1745 21.1788 15.3364 21.1788C19.4984 21.1788 22.8555 17.9737 22.8555 14C22.8555 10.0263 19.4984 6.82115 15.3364 6.82115ZM15.3364 18.6672C12.6469 18.6672 10.4481 16.5741 10.4481 14C10.4481 11.4259 12.6403 9.33281 15.3364 9.33281C18.0326 9.33281 20.2248 11.4259 20.2248 14C20.2248 16.5741 18.026 18.6672 15.3364 18.6672V18.6672ZM24.9168 6.5275C24.9168 7.45844 24.1315 8.20194 23.163 8.20194C22.188 8.20194 21.4092 7.45219 21.4092 6.5275C21.4092 5.60281 22.1945 4.85306 23.163 4.85306C24.1315 4.85306 24.9168 5.60281 24.9168 6.5275ZM29.8968 8.22693C29.7855 5.98393 29.2489 3.9971 27.5279 2.36015C25.8133 0.723195 23.7324 0.210867 21.3831 0.0984046C18.9618 -0.0328015 11.7045 -0.0328015 9.28327 0.0984046C6.94053 0.204619 4.85955 0.716947 3.13849 2.3539C1.41742 3.99085 0.887363 5.97769 0.769571 8.22069C0.632148 10.5324 0.632148 17.4613 0.769571 19.7731C0.880819 22.0161 1.41742 24.0029 3.13849 25.6399C4.85955 27.2768 6.93399 27.7891 9.28327 27.9016C11.7045 28.0328 18.9618 28.0328 21.3831 27.9016C23.7324 27.7954 25.8133 27.2831 27.5279 25.6399C29.2424 24.0029 29.779 22.0161 29.8968 19.7731C30.0342 17.4613 30.0342 10.5387 29.8968 8.22693V8.22693ZM26.7688 22.2535C26.2583 23.4781 25.2702 24.4215 23.981 24.9151C22.0506 25.6461 17.4698 25.4774 15.3364 25.4774C13.2031 25.4774 8.61579 25.6399 6.69186 24.9151C5.40924 24.4278 4.42111 23.4843 3.90413 22.2535C3.13849 20.4104 3.31517 16.0368 3.31517 14C3.31517 11.9632 3.14503 7.5834 3.90413 5.74651C4.41456 4.52192 5.4027 3.57849 6.69186 3.0849C8.62233 2.3539 13.2031 2.52259 15.3364 2.52259C17.4698 2.52259 22.0571 2.36015 23.981 3.0849C25.2636 3.57224 26.2518 4.51568 26.7688 5.74651C27.5344 7.58965 27.3577 11.9632 27.3577 14C27.3577 16.0368 27.5344 20.4166 26.7688 22.2535Z" fill="#F0F0F0"/>
</svg>
