<svg width="31" height="28" viewBox="0 0 31 28" fill="none" xmlns="http://www.w3.org/2000/svg">
<path d="M6.8644 28H0.506548V9.30583H6.8644V28ZM3.68205 6.75578C1.64902 6.75578 0 5.21824 0 3.36195C1.45516e-08 2.47031 0.38793 1.61518 1.07845 0.984692C1.76897 0.354204 2.70551 0 3.68205 0C4.65859 0 5.59514 0.354204 6.28566 0.984692C6.97618 1.61518 7.36411 2.47031 7.36411 3.36195C7.36411 5.21824 5.7144 6.75578 3.68205 6.75578ZM30.6598 28H24.3157V18.8998C24.3157 16.731 24.2677 13.9497 21.0101 13.9497C17.7045 13.9497 17.198 16.306 17.198 18.7435V28H10.847V9.30583H16.9447V11.8559H17.0337C17.8825 10.3871 19.9559 8.83707 23.0493 8.83707C29.4838 8.83707 30.6667 12.7059 30.6667 17.731V28H30.6598Z" fill="#F0F0F0"/>
</svg>
