<svg width="377" height="47" viewBox="0 0 377 47" fill="none" xmlns="http://www.w3.org/2000/svg">
<g clip-path="url(#clip0_1_51)">
<path d="M316.239 24.2731V15.4023H321.727V16.3149H317.278V19.3196H320.95V20.2163H317.278V23.3605H321.727V24.2731H316.239V24.2731Z" fill="#F0F0F0"/>
<path d="M323.252 24.2731V17.8532H324.251V18.3035C324.396 18.2198 324.581 18.1321 324.803 18.0484C325.024 17.9647 325.258 17.889 325.511 17.8253C325.765 17.7615 326.002 17.7296 326.236 17.7296C326.832 17.7296 327.287 17.8332 327.605 18.0444C327.919 18.2556 328.14 18.5904 328.261 19.0527C328.382 19.5149 328.442 20.1207 328.442 20.8738V24.2771H327.432V20.9137C327.432 20.3558 327.4 19.9134 327.335 19.5787C327.271 19.2439 327.142 19.0048 326.945 18.8534C326.751 18.702 326.453 18.6302 326.055 18.6302C325.837 18.6302 325.616 18.6542 325.386 18.702C325.157 18.7498 324.944 18.8096 324.746 18.8813C324.549 18.953 324.384 19.0248 324.255 19.0925V24.2771H323.256L323.252 24.2731Z" fill="#F0F0F0"/>
<path d="M332.529 24.4006C331.881 24.4006 331.37 24.2771 330.991 24.03C330.617 23.7829 330.343 23.4123 330.182 22.9262C330.021 22.44 329.937 21.8303 329.937 21.105C329.937 20.292 330.049 19.6385 330.275 19.1483C330.5 18.6581 330.814 18.2955 331.221 18.0683C331.628 17.8412 332.107 17.7296 332.662 17.7296C333.528 17.7296 334.18 17.9687 334.619 18.4429C335.062 18.9172 335.279 19.6823 335.279 20.7344L335.227 21.4915H330.959C330.967 22.157 331.092 22.6631 331.334 23.0059C331.575 23.3486 332.014 23.5199 332.642 23.5199C332.884 23.5199 333.15 23.512 333.439 23.5C333.729 23.4881 334.015 23.4721 334.301 23.4562C334.587 23.4402 334.829 23.4203 335.026 23.4044L335.05 24.1854C334.841 24.2213 334.591 24.2532 334.293 24.2891C333.995 24.3249 333.689 24.3488 333.379 24.3727C333.069 24.3927 332.783 24.4046 332.521 24.4046L332.529 24.4006ZM330.959 20.6786H334.265C334.265 19.8895 334.136 19.3436 333.882 19.0287C333.629 18.7179 333.218 18.5585 332.658 18.5585C332.099 18.5585 331.696 18.7219 331.402 19.0447C331.108 19.3715 330.959 19.9134 330.959 20.6746V20.6786Z" fill="#F0F0F0"/>
<path d="M336.781 24.2731V17.8532H337.78V18.7139C337.945 18.6024 338.15 18.4828 338.404 18.3473C338.658 18.2118 338.931 18.0883 339.233 17.9687C339.535 17.8492 339.837 17.7655 340.139 17.7137V18.7259C339.845 18.7857 339.547 18.8654 339.245 18.965C338.943 19.0646 338.666 19.1682 338.408 19.2798C338.154 19.3914 337.945 19.491 337.78 19.5747V24.2731H336.781V24.2731Z" fill="#F0F0F0"/>
<path d="M343.706 27.2898C343.034 27.2898 342.491 27.23 342.08 27.1144C341.669 26.9989 341.371 26.7996 341.186 26.5167C341.001 26.2337 340.908 25.8472 340.908 25.361C340.908 25.1139 340.948 24.9027 341.025 24.7274C341.101 24.552 341.218 24.3887 341.367 24.2412C341.52 24.0898 341.705 23.9344 341.931 23.771C341.818 23.6873 341.73 23.5637 341.665 23.4043C341.601 23.2449 341.569 23.0696 341.569 22.8703C341.569 22.7747 341.617 22.6233 341.717 22.416C341.818 22.2088 341.915 22.0215 342.007 21.8581C341.826 21.7744 341.661 21.6549 341.508 21.5035C341.355 21.352 341.234 21.1488 341.138 20.8937C341.041 20.6387 340.997 20.3119 340.997 19.9174C340.997 19.1284 341.222 18.5665 341.673 18.2277C342.124 17.889 342.708 17.7216 343.425 17.7216C343.658 17.7216 343.904 17.7376 344.165 17.7734C344.423 17.8093 344.629 17.8452 344.773 17.889L346.706 17.8372V18.686L345.486 18.6621C345.607 18.7816 345.708 18.9411 345.792 19.1363C345.873 19.3316 345.917 19.5946 345.917 19.9174C345.917 20.4753 345.82 20.9097 345.631 21.2285C345.442 21.5473 345.16 21.7665 344.79 21.898C344.419 22.0295 343.952 22.0893 343.388 22.0893C343.328 22.0893 343.227 22.0813 343.082 22.0693C342.941 22.0574 342.833 22.0454 342.764 22.0375C342.712 22.157 342.66 22.2925 342.607 22.4479C342.555 22.6033 342.531 22.7069 342.531 22.7707C342.531 22.9341 342.559 23.0576 342.623 23.1413C342.684 23.225 342.825 23.2808 343.046 23.3087C343.268 23.3366 343.614 23.3485 344.089 23.3485C344.713 23.3485 345.208 23.4004 345.579 23.504C345.949 23.6076 346.215 23.7949 346.376 24.0619C346.537 24.3329 346.618 24.7234 346.618 25.2375C346.618 25.9628 346.364 26.4888 345.853 26.8116C345.341 27.1344 344.629 27.2938 343.715 27.2938L343.706 27.2898ZM343.719 26.441C344.359 26.441 344.83 26.3493 345.132 26.17C345.434 25.9907 345.587 25.6958 345.587 25.2853C345.587 24.9665 345.538 24.7354 345.438 24.5839C345.337 24.4325 345.172 24.3368 344.939 24.289C344.705 24.2412 344.395 24.2173 344.004 24.2173C343.928 24.2173 343.819 24.2173 343.678 24.2093C343.541 24.2053 343.396 24.2014 343.252 24.1974C343.103 24.1934 342.974 24.1854 342.857 24.1774C342.74 24.1695 342.66 24.1655 342.615 24.1655C342.346 24.3528 342.16 24.5241 342.056 24.6716C341.951 24.823 341.899 25.0183 341.899 25.2694C341.899 25.5523 341.951 25.7794 342.056 25.9508C342.16 26.1222 342.342 26.2457 342.607 26.3214C342.869 26.3971 343.239 26.437 343.715 26.437L343.719 26.441ZM343.421 21.2922C343.956 21.2922 344.339 21.1886 344.56 20.9774C344.786 20.7662 344.898 20.4155 344.898 19.9174C344.898 19.4193 344.786 19.0646 344.56 18.8534C344.335 18.6422 343.956 18.5306 343.421 18.5306C342.917 18.5306 342.559 18.6382 342.338 18.8534C342.116 19.0686 342.007 19.4232 342.007 19.9174C342.007 20.4115 342.116 20.7662 342.338 20.9774C342.559 21.1886 342.917 21.2922 343.421 21.2922V21.2922Z" fill="#F0F0F0"/>
<path d="M347.882 16.4424V15.2867H348.88V16.4424H347.882ZM347.882 24.2731V17.8531H348.88V24.2731H347.882Z" fill="#F0F0F0"/>
<path d="M352.161 24.4006C351.566 24.4006 351.111 24.2332 350.801 23.8985C350.491 23.5637 350.333 23.0775 350.333 22.4359C350.333 22.0175 350.406 21.6748 350.555 21.4078C350.704 21.1408 350.925 20.9376 351.223 20.7981C351.521 20.6586 351.892 20.5709 352.331 20.5351L354.328 20.3438V19.7899C354.328 19.3515 354.231 19.0446 354.038 18.8653C353.844 18.686 353.555 18.5943 353.176 18.5943C352.959 18.5943 352.701 18.6023 352.403 18.6222C352.105 18.6382 351.807 18.6621 351.513 18.686C351.219 18.7099 350.962 18.7378 350.736 18.7617L350.684 18.0045C350.893 17.9607 351.143 17.9209 351.437 17.877C351.731 17.8332 352.037 17.7973 352.359 17.7694C352.677 17.7375 352.971 17.7256 353.241 17.7256C353.732 17.7256 354.134 17.8013 354.448 17.9488C354.758 18.1002 354.988 18.3273 355.129 18.6302C355.27 18.9331 355.342 19.3196 355.342 19.7938V23.0417C355.358 23.229 355.435 23.3685 355.568 23.4521C355.701 23.5358 355.874 23.5916 356.079 23.6195L356.039 24.4006C355.85 24.4006 355.676 24.3886 355.519 24.3687C355.362 24.3488 355.217 24.3169 355.077 24.2731C354.964 24.2292 354.859 24.1774 354.758 24.1177C354.658 24.0579 354.561 23.9861 354.469 23.8985C354.303 23.9662 354.094 24.0379 353.84 24.1177C353.587 24.1934 353.313 24.2611 353.023 24.3169C352.733 24.3727 352.447 24.4006 352.161 24.4006V24.4006ZM352.331 23.5677C352.564 23.5677 352.806 23.5478 353.055 23.5039C353.305 23.4601 353.542 23.4083 353.768 23.3485C353.993 23.2888 354.179 23.233 354.324 23.1812V21.089L352.443 21.2683C352.053 21.3042 351.775 21.4158 351.606 21.6031C351.437 21.7904 351.352 22.0614 351.352 22.412C351.352 22.7627 351.433 23.0536 351.598 23.2609C351.763 23.4681 352.004 23.5677 352.322 23.5677H352.331Z" fill="#F0F0F0"/>
<path d="M359.284 24.4006C359.087 24.4006 358.845 24.3887 358.564 24.3608C358.282 24.3368 358.004 24.301 357.726 24.2651C357.448 24.2253 357.203 24.1894 356.985 24.1575L357.038 23.2967C357.255 23.3207 357.497 23.3525 357.77 23.3844C358.044 23.4203 358.31 23.4482 358.568 23.4681C358.825 23.488 359.035 23.5 359.192 23.5C359.546 23.5 359.84 23.4681 360.073 23.4043C360.307 23.3406 360.484 23.229 360.605 23.0776C360.726 22.9221 360.786 22.7069 360.786 22.424C360.786 22.2088 360.742 22.0414 360.649 21.9219C360.557 21.8023 360.392 21.7027 360.142 21.627C359.896 21.5513 359.538 21.4756 359.071 21.4078C358.588 21.3321 358.181 21.2325 357.859 21.1169C357.533 21.0013 357.295 20.83 357.138 20.5988C356.981 20.3677 356.905 20.0369 356.905 19.6105C356.905 19.1323 357.018 18.7538 357.243 18.4828C357.468 18.2118 357.758 18.0125 358.117 17.897C358.475 17.7814 358.849 17.7216 359.24 17.7216C359.482 17.7216 359.747 17.7336 360.037 17.7615C360.327 17.7854 360.609 17.8212 360.887 17.8571C361.165 17.897 361.402 17.9328 361.599 17.9647L361.575 18.8255C361.366 18.7896 361.124 18.7577 360.851 18.7298C360.577 18.7019 360.299 18.6741 360.021 18.6541C359.743 18.6342 359.502 18.6222 359.296 18.6222C359.039 18.6222 358.805 18.6501 358.596 18.7059C358.386 18.7617 358.225 18.8574 358.105 18.9968C357.984 19.1363 357.923 19.3276 357.923 19.5747C357.923 19.762 357.968 19.9134 358.052 20.029C358.137 20.1445 358.302 20.2402 358.543 20.3199C358.785 20.3956 359.135 20.4753 359.594 20.551C360.13 20.6347 360.561 20.7423 360.887 20.8738C361.213 21.0013 361.446 21.1807 361.595 21.4118C361.74 21.6429 361.817 21.9697 361.817 22.3881C361.817 23.1413 361.591 23.6634 361.145 23.9622C360.694 24.2571 360.078 24.4046 359.288 24.4046L359.284 24.4006Z" fill="#F0F0F0"/>
<path d="M316.239 38.7867V29.916H319.573C320.205 29.916 320.732 30.0116 321.163 30.1989C321.594 30.3862 321.912 30.6811 322.129 31.0796C322.347 31.4781 322.455 31.9882 322.455 32.6139C322.455 33.2395 322.323 33.8134 322.061 34.2557C321.799 34.698 321.384 35.0129 320.821 35.1922L322.532 38.7867H321.376L319.794 35.4114H317.278V38.7867H316.239V38.7867ZM317.278 34.5107H319.585C320.028 34.5107 320.378 34.431 320.644 34.2677C320.909 34.1043 321.095 33.8811 321.207 33.5942C321.32 33.3073 321.376 32.9845 321.376 32.6258C321.376 32.0201 321.227 31.5658 320.933 31.2669C320.64 30.968 320.185 30.8166 319.573 30.8166H317.278V34.5147V34.5107Z" fill="#F0F0F0"/>
<path d="M326.304 38.9142C325.656 38.9142 325.145 38.7907 324.766 38.5436C324.392 38.2966 324.118 37.9259 323.957 37.4398C323.796 36.9536 323.711 36.3439 323.711 35.6186C323.711 34.8056 323.824 34.1521 324.05 33.6619C324.275 33.1717 324.589 32.8091 324.996 32.582C325.402 32.3548 325.882 32.2432 326.437 32.2432C327.303 32.2432 327.955 32.4823 328.394 32.9566C328.837 33.4308 329.054 34.1959 329.054 35.248L329.002 36.0051H324.734C324.742 36.6706 324.867 37.1767 325.109 37.5195C325.35 37.8622 325.789 38.0335 326.417 38.0335C326.659 38.0335 326.924 38.0256 327.214 38.0136C327.504 38.0017 327.79 37.9857 328.076 37.9698C328.362 37.9538 328.603 37.9339 328.801 37.918L328.825 38.699C328.615 38.7349 328.366 38.7668 328.068 38.8027C327.77 38.8385 327.464 38.8624 327.154 38.8863C326.844 38.9063 326.558 38.9182 326.296 38.9182L326.304 38.9142ZM324.734 35.1922H328.04C328.04 34.4031 327.911 33.8572 327.657 33.5424C327.404 33.2315 326.993 33.0721 326.433 33.0721C325.874 33.0721 325.471 33.2355 325.177 33.5583C324.883 33.8851 324.734 34.427 324.734 35.1882V35.1922Z" fill="#F0F0F0"/>
<path d="M330.556 38.7867V32.3668H331.555V32.8171C331.7 32.7334 331.885 32.6457 332.106 32.562C332.328 32.4783 332.561 32.4026 332.815 32.3389C333.069 32.2751 333.306 32.2432 333.54 32.2432C334.136 32.2432 334.591 32.3468 334.909 32.558C335.223 32.7693 335.444 33.104 335.565 33.5663C335.686 34.0285 335.746 34.6343 335.746 35.3875V38.7907H334.735V35.4273C334.735 34.8694 334.703 34.427 334.639 34.0923C334.574 33.7576 334.446 33.5184 334.248 33.367C334.055 33.2156 333.757 33.1439 333.358 33.1439C333.141 33.1439 332.92 33.1678 332.69 33.2156C332.461 33.2634 332.247 33.3232 332.05 33.3949C331.853 33.4666 331.688 33.5384 331.559 33.6061V38.7907H330.56L330.556 38.7867Z" fill="#F0F0F0"/>
<path d="M340.026 38.9142C339.301 38.9142 338.738 38.7907 338.335 38.5436C337.932 38.2966 337.651 37.918 337.494 37.4159C337.332 36.9097 337.252 36.2721 337.252 35.503C337.252 34.7339 337.341 34.16 337.518 33.6818C337.695 33.2036 337.985 32.845 338.391 32.6019C338.798 32.3628 339.342 32.2432 340.026 32.2432C340.711 32.2432 341.266 32.3628 341.673 32.6019C342.079 32.841 342.369 33.1996 342.547 33.6818C342.724 34.16 342.812 34.7698 342.812 35.503C342.812 36.2363 342.732 36.9097 342.571 37.4159C342.41 37.922 342.128 38.2966 341.729 38.5436C341.331 38.7907 340.759 38.9142 340.022 38.9142H340.026ZM340.026 38.0535C340.529 38.0535 340.904 37.9658 341.153 37.7905C341.403 37.6151 341.572 37.3401 341.653 36.9616C341.733 36.583 341.778 36.0968 341.778 35.499C341.778 34.9013 341.725 34.439 341.62 34.0883C341.516 33.7376 341.339 33.4866 341.089 33.3311C340.839 33.1757 340.485 33.1 340.026 33.1C339.567 33.1 339.225 33.1757 338.967 33.3311C338.714 33.4866 338.532 33.7376 338.428 34.0883C338.323 34.439 338.271 34.9092 338.271 35.499C338.271 36.0888 338.311 36.587 338.395 36.9616C338.476 37.3362 338.645 37.6151 338.895 37.7905C339.144 37.9658 339.523 38.0535 340.022 38.0535H340.026Z" fill="#F0F0F0"/>
<path d="M345.486 38.7867L343.67 32.3668H344.761L346.239 37.9259H346.73L348.26 32.3668H349.299L347.483 38.7867H345.486Z" fill="#F0F0F0"/>
<path d="M351.851 38.9143C351.255 38.9143 350.801 38.7469 350.49 38.4122C350.18 38.0774 350.023 37.5912 350.023 36.9496C350.023 36.5312 350.096 36.1885 350.245 35.9215C350.394 35.6545 350.615 35.4512 350.913 35.3118C351.211 35.1723 351.582 35.0846 352.02 35.0487L354.018 34.8575V34.3035C354.018 33.8652 353.921 33.5583 353.728 33.379C353.534 33.1997 353.244 33.108 352.866 33.108C352.649 33.108 352.391 33.116 352.093 33.1359C351.795 33.1519 351.497 33.1758 351.203 33.1997C350.909 33.2236 350.652 33.2515 350.426 33.2754L350.374 32.5182C350.583 32.4744 350.833 32.4345 351.127 32.3907C351.421 32.3469 351.727 32.311 352.049 32.2831C352.367 32.2512 352.661 32.2393 352.93 32.2393C353.422 32.2393 353.824 32.315 354.138 32.4624C354.448 32.6139 354.678 32.841 354.819 33.1439C354.96 33.4467 355.032 33.8333 355.032 34.3075V37.5554C355.048 37.7427 355.125 37.8821 355.258 37.9658C355.391 38.0495 355.564 38.1053 355.769 38.1332L355.729 38.9143C355.539 38.9143 355.366 38.9023 355.209 38.8824C355.052 38.8625 354.907 38.8306 354.766 38.7868C354.654 38.7429 354.549 38.6911 354.448 38.6313C354.348 38.5716 354.251 38.4998 354.158 38.4122C353.993 38.4799 353.784 38.5516 353.53 38.6313C353.277 38.7071 353.003 38.7748 352.713 38.8306C352.423 38.8864 352.137 38.9143 351.851 38.9143V38.9143ZM351.292 31.2111L351.018 30.5416L353.844 29.2704L354.183 30.1312L351.292 31.2111V31.2111ZM352.016 38.0774C352.25 38.0774 352.492 38.0575 352.741 38.0136C352.991 37.9698 353.228 37.918 353.454 37.8582C353.679 37.7985 353.865 37.7427 354.009 37.6909V35.5987L352.129 35.778C351.739 35.8139 351.461 35.9255 351.292 36.1128C351.123 36.3001 351.038 36.571 351.038 36.9217C351.038 37.2724 351.119 37.5633 351.284 37.7706C351.449 37.9778 351.69 38.0774 352.008 38.0774H352.016Z" fill="#F0F0F0"/>
<path d="M358.076 38.7867L356.26 32.3668H357.351L358.829 37.9259H359.32L360.85 32.3668H361.889L360.073 38.7867H358.076Z" fill="#F0F0F0"/>
<path d="M365.328 38.9142C364.68 38.9142 364.168 38.7907 363.79 38.5436C363.415 38.2966 363.142 37.9259 362.98 37.4398C362.819 36.9536 362.735 36.3439 362.735 35.6186C362.735 34.8056 362.848 34.1521 363.073 33.6619C363.299 33.1717 363.613 32.8091 364.019 32.582C364.426 32.3548 364.905 32.2432 365.461 32.2432C366.326 32.2432 366.979 32.4823 367.417 32.9566C367.86 33.4308 368.078 34.1959 368.078 35.248L368.025 36.0051H363.758C363.766 36.6706 363.89 37.1767 364.132 37.5195C364.374 37.8622 364.812 38.0335 365.441 38.0335C365.682 38.0335 365.948 38.0256 366.238 38.0136C366.528 38.0017 366.814 37.9857 367.099 37.9698C367.385 37.9538 367.627 37.9339 367.824 37.918L367.848 38.699C367.639 38.7349 367.389 38.7668 367.091 38.8027C366.793 38.8385 366.487 38.8624 366.177 38.8863C365.867 38.9063 365.581 38.9182 365.32 38.9182L365.328 38.9142ZM363.758 35.1922H367.063C367.063 34.4031 366.934 33.8572 366.681 33.5424C366.427 33.2315 366.016 33.0721 365.457 33.0721C364.897 33.0721 364.494 33.2355 364.2 33.5583C363.907 33.8851 363.758 34.427 363.758 35.1882V35.1922Z" fill="#F0F0F0"/>
<path d="M369.583 30.9561V29.8004H370.582V30.9561H369.583ZM369.583 38.7868V32.3668H370.582V38.7868H369.583Z" fill="#F0F0F0"/>
<path d="M374.471 38.9143C374.274 38.9143 374.032 38.9023 373.751 38.8744C373.469 38.8505 373.191 38.8147 372.913 38.7788C372.635 38.7389 372.39 38.7031 372.172 38.6712L372.225 37.8104C372.442 37.8343 372.684 37.8662 372.957 37.8981C373.231 37.934 373.497 37.9618 373.755 37.9818C374.012 38.0017 374.222 38.0137 374.379 38.0137C374.733 38.0137 375.027 37.9818 375.261 37.918C375.494 37.8542 375.671 37.7427 375.792 37.5912C375.913 37.4358 375.973 37.2206 375.973 36.9377C375.973 36.7225 375.929 36.5551 375.836 36.4356C375.744 36.316 375.579 36.2164 375.329 36.1407C375.083 36.065 374.725 35.9892 374.258 35.9215C373.775 35.8458 373.368 35.7461 373.046 35.6306C372.72 35.515 372.482 35.3437 372.325 35.1125C372.168 34.8814 372.092 34.5506 372.092 34.1242C372.092 33.646 372.205 33.2674 372.43 32.9964C372.655 32.7255 372.945 32.5262 373.304 32.4106C373.662 32.2951 374.037 32.2353 374.427 32.2353C374.669 32.2353 374.934 32.2472 375.224 32.2751C375.514 32.2991 375.796 32.3349 376.074 32.3708C376.352 32.4106 376.589 32.4465 376.786 32.4784L376.762 33.3392C376.553 33.3033 376.311 33.2714 376.038 33.2435C375.764 33.2156 375.486 33.1877 375.208 33.1678C374.93 33.1479 374.689 33.1359 374.483 33.1359C374.226 33.1359 373.992 33.1638 373.783 33.2196C373.573 33.2754 373.412 33.371 373.292 33.5105C373.171 33.65 373.11 33.8413 373.11 34.0884C373.11 34.2757 373.155 34.4271 373.239 34.5427C373.324 34.6582 373.489 34.7539 373.73 34.8336C373.972 34.9093 374.322 34.989 374.781 35.0647C375.317 35.1484 375.748 35.256 376.074 35.3875C376.4 35.515 376.633 35.6943 376.782 35.9255C376.927 36.1566 377.004 36.4834 377.004 36.9018C377.004 37.655 376.778 38.177 376.331 38.4759C375.881 38.7708 375.265 38.9183 374.475 38.9183L374.471 38.9143Z" fill="#F0F0F0"/>
<path d="M110.522 46.2588L99.3936 0.107605H109.294L117.282 37.2724H120.081L127.932 0.107605H137.833L126.909 46.2588H110.526H110.522Z" fill="#F0F0F0"/>
<path d="M142.54 7.70315V0H151.687V7.70315H142.54ZM142.54 46.2588V11.6763H151.619V46.2588H142.54Z" fill="#F0F0F0"/>
<path d="M171.501 47C167.724 47 164.728 46.3704 162.522 45.1071C160.316 43.8478 158.733 41.931 157.779 39.3646C156.825 36.7982 156.346 33.5783 156.346 29.7008C156.346 25.5125 156.95 22.0893 158.154 19.4312C159.357 16.7732 161.125 14.8046 163.444 13.5174C165.763 12.2342 168.634 11.5926 172.044 11.5926C177.097 11.5926 180.906 12.8559 183.479 15.3784C186.048 17.901 187.336 21.89 187.336 27.3376L186.926 32.3389H165.489C165.534 34.8615 166.057 36.7544 167.06 38.0137C168.062 39.2769 169.79 39.9066 172.25 39.9066C173.659 39.9066 175.209 39.8747 176.892 39.8069C178.575 39.7392 180.246 39.6595 181.909 39.5718C183.572 39.4802 184.993 39.3925 186.177 39.3008L186.382 45.5853C185.243 45.7646 183.809 45.9679 182.082 46.195C180.351 46.4182 178.567 46.6095 176.723 46.7689C174.879 46.9243 173.139 47.004 171.501 47.004V47ZM165.493 26.5924H178.261C178.261 23.5279 177.77 21.3879 176.791 20.1725C175.813 18.957 174.231 18.3473 172.048 18.3473C169.866 18.3473 168.284 18.9769 167.168 20.2402C166.053 21.5035 165.498 23.6196 165.498 26.5924H165.493Z" fill="#F0F0F0"/>
<path d="M192.047 46.2588V12.3378H201.126V14.5017C201.855 14.0514 202.741 13.613 203.788 13.1826C204.835 12.7562 205.938 12.3816 207.097 12.0668C208.257 11.752 209.384 11.5926 210.475 11.5926C213.66 11.5926 216.128 12.1465 217.884 13.2464C219.635 14.3503 220.875 16.1515 221.604 18.6502C222.333 21.1488 222.695 24.4963 222.695 28.6846V46.2508H213.548V29.1548C213.548 26.8116 213.411 24.9306 213.137 23.512C212.863 22.0933 212.34 21.0691 211.567 20.4395C210.794 19.8098 209.654 19.495 208.152 19.495C207.335 19.495 206.481 19.5747 205.592 19.7301C204.706 19.8895 203.86 20.1007 203.067 20.3717C202.27 20.6427 201.622 20.9137 201.122 21.1807V46.2508H192.043L192.047 46.2588Z" fill="#F0F0F0"/>
<path d="M242.553 47C238.777 47 235.781 46.3704 233.575 45.1071C231.368 43.8478 229.786 41.931 228.832 39.3646C227.878 36.7982 227.398 33.5783 227.398 29.7008C227.398 25.5125 228.002 22.0893 229.206 19.4312C230.41 16.7732 232.178 14.8046 234.497 13.5174C236.816 12.2342 239.687 11.5926 243.097 11.5926C248.15 11.5926 251.959 12.8559 254.532 15.3784C257.101 17.901 258.389 21.89 258.389 27.3376L257.978 32.3389H236.542C236.586 34.8615 237.11 36.7544 238.112 38.0137C239.115 39.2769 240.842 39.9066 243.302 39.9066C244.712 39.9066 246.262 39.8747 247.945 39.8069C249.628 39.7392 251.299 39.6595 252.962 39.5718C254.624 39.4802 256.046 39.3925 257.229 39.3008L257.435 45.5853C256.295 45.7646 254.862 45.9679 253.135 46.195C251.403 46.4182 249.62 46.6095 247.776 46.7689C245.932 46.9243 244.192 47.004 242.553 47.004V47ZM236.546 26.5924H249.314C249.314 23.5279 248.822 21.3879 247.844 20.1725C246.866 18.957 245.283 18.3473 243.101 18.3473C240.919 18.3473 239.336 18.9769 238.221 20.2402C237.106 21.5035 236.55 23.6196 236.55 26.5924H236.546Z" fill="#F0F0F0"/>
<path d="M263.293 46.2588V12.3378H272.372V16.3229C273.145 15.7371 274.099 15.1194 275.239 14.4658C276.374 13.8123 277.618 13.2065 278.959 12.6407C280.3 12.0788 281.588 11.7082 282.816 11.5248V20.2402C281.632 20.4195 280.38 20.7264 279.06 21.1528C277.739 21.5832 276.499 22.0415 275.339 22.5396C274.18 23.0377 273.189 23.4841 272.368 23.8905V46.2548H263.289L263.293 46.2588Z" fill="#F0F0F0"/>
<path d="M22.5435 46.2588H48.5011C55.2935 33.2156 62.0899 20.1765 68.8823 7.1333H42.9247C36.1323 20.1765 29.3359 33.2156 22.5435 46.2588Z" fill="#E87220"/>
<path d="M46.3389 39.5359H20.3812C13.5888 26.4928 6.79239 13.4496 0 0.410461H25.9577C32.75 13.4536 39.5465 26.4928 46.3389 39.5359V39.5359Z" fill="#F5B41A"/>
</g>
<defs>
<clipPath id="clip0_1_51">
<rect width="377" height="47" fill="white"/>
</clipPath>
</defs>
</svg>
