<svg width="142" height="24" viewBox="0 0 142 24" fill="none" xmlns="http://www.w3.org/2000/svg">
<g clip-path="url(#clip0_1_129)">
<path d="M55.4924 23.6215L49.9048 0.0549316H54.8759L58.8867 19.0327H60.2917L64.2338 0.0549316H69.2048L63.7203 23.6215H55.4945H55.4924Z" fill="#2E4739"/>
<path d="M71.5679 3.93353V0H76.1609V3.93353H71.5679ZM71.5679 23.6215V5.96235H76.1265V23.6215H71.5679Z" fill="#2E4739"/>
<path d="M86.1092 24.0001C84.213 24.0001 82.7089 23.6785 81.6011 23.0335C80.4933 22.3904 79.6988 21.4116 79.2197 20.1011C78.7406 18.7906 78.5 17.1464 78.5 15.1664C78.5 13.0277 78.8032 11.2797 79.4077 9.92239C80.0121 8.56509 80.8996 7.55983 82.0641 6.90255C83.2285 6.2473 84.6699 5.91968 86.3821 5.91968C88.9192 5.91968 90.8317 6.56475 92.1234 7.85286C93.4132 9.14098 94.0601 11.1779 94.0601 13.9597L93.8539 16.5135H83.091C83.1132 17.8017 83.3761 18.7682 83.8794 19.4113C84.3828 20.0564 85.2501 20.3779 86.4853 20.3779C87.1928 20.3779 87.9711 20.3616 88.8161 20.327C89.6612 20.2924 90.5001 20.2517 91.335 20.2069C92.1699 20.1601 92.8836 20.1154 93.4779 20.0686L93.581 23.2777C93.0089 23.3692 92.2892 23.473 91.422 23.589C90.5527 23.703 89.6571 23.8006 88.7312 23.882C87.8053 23.9614 86.932 24.0021 86.1092 24.0021V24.0001ZM83.093 13.5792H89.5035C89.5035 12.0143 89.2568 10.9215 88.7656 10.3009C88.2744 9.68023 87.4799 9.36889 86.3842 9.36889C85.2885 9.36889 84.494 9.69041 83.934 10.3355C83.374 10.9806 83.0951 12.0611 83.0951 13.5792H83.093Z" fill="#2E4739"/>
<path d="M96.4254 23.6216V6.30021H100.984V7.40518C101.35 7.17523 101.795 6.95139 102.32 6.73162C102.846 6.51388 103.4 6.32259 103.982 6.16183C104.564 6.00108 105.13 5.91968 105.678 5.91968C107.277 5.91968 108.516 6.20253 109.398 6.76418C110.277 7.32785 110.9 8.24764 111.266 9.52354C111.632 10.7994 111.814 12.5088 111.814 14.6475V23.6175H107.221V14.8876C107.221 13.6911 107.152 12.7306 107.014 12.0062C106.877 11.2817 106.614 10.7587 106.226 10.4372C105.838 10.1157 105.266 9.95495 104.512 9.95495C104.101 9.95495 103.673 9.99565 103.226 10.075C102.781 10.1564 102.357 10.2643 101.958 10.4026C101.558 10.541 101.233 10.6794 100.982 10.8157V23.6175H96.4233L96.4254 23.6216Z" fill="#2E4739"/>
<path d="M121.784 24.0001C119.888 24.0001 118.384 23.6785 117.276 23.0335C116.168 22.3904 115.374 21.4116 114.894 20.1011C114.415 18.7906 114.175 17.1464 114.175 15.1664C114.175 13.0277 114.478 11.2797 115.082 9.92239C115.687 8.56509 116.574 7.55983 117.739 6.90255C118.903 6.2473 120.345 5.91968 122.057 5.91968C124.594 5.91968 126.506 6.56475 127.798 7.85286C129.088 9.14098 129.735 11.1779 129.735 13.9597L129.529 16.5135H118.766C118.788 17.8017 119.051 18.7682 119.554 19.4113C120.058 20.0564 120.925 20.3779 122.16 20.3779C122.868 20.3779 123.646 20.3616 124.491 20.327C125.336 20.2924 126.175 20.2517 127.01 20.2069C127.845 20.1601 128.558 20.1154 129.153 20.0686L129.256 23.2777C128.684 23.3692 127.964 23.473 127.097 23.589C126.227 23.703 125.332 23.8006 124.406 23.882C123.48 23.9614 122.607 24.0021 121.784 24.0021V24.0001ZM118.768 13.5792H125.178C125.178 12.0143 124.932 10.9215 124.44 10.3009C123.949 9.68023 123.155 9.36889 122.059 9.36889C120.963 9.36889 120.169 9.69041 119.609 10.3355C119.049 10.9806 118.77 12.0611 118.77 13.5792H118.768Z" fill="#2E4739"/>
<path d="M132.197 23.6215V6.30014H136.756V8.33507C137.144 8.03593 137.623 7.72052 138.195 7.38679C138.765 7.05306 139.39 6.74375 140.063 6.45479C140.737 6.16787 141.383 5.97862 142 5.88501V10.3354C141.406 10.427 140.777 10.5837 140.114 10.8014C139.451 11.0212 138.828 11.2552 138.246 11.5096C137.664 11.7639 137.166 11.9918 136.754 12.1994V23.6195H132.195L132.197 23.6215Z" fill="#2E4739"/>
<path d="M11.3188 23.6216H24.352C27.7624 16.9612 31.1748 10.3029 34.5852 3.64258H21.5521C18.1417 10.3029 14.7293 16.9612 11.3188 23.6216Z" fill="#ED7220"/>
<path d="M23.2664 20.1887H10.2333C6.82284 13.5284 3.41041 6.86802 0 0.209717H13.0331C16.4436 6.87005 19.856 13.5284 23.2664 20.1887V20.1887Z" fill="#FAB91A"/>
</g>
<defs>
<clipPath id="clip0_1_129">
<rect width="142" height="24" fill="white"/>
</clipPath>
</defs>
</svg>
