<svg width="15" height="15" viewBox="0 0 15 15" fill="none" xmlns="http://www.w3.org/2000/svg">
<g clip-path="url(#clip0_1_99)">
<path d="M0 3.76823C0.0425449 3.66354 0.085924 3.51881 0.157249 3.38951C0.578527 2.62205 1.11159 1.93426 1.70346 1.29527C2.05258 0.918637 2.4359 0.571197 2.8259 0.236687C3.35896 -0.221284 3.89745 0.0615064 4.17065 0.437309C4.86972 1.39788 5.52208 2.38973 6.02052 3.47376C6.09393 3.63351 6.14774 3.80369 6.20071 3.97178C6.29289 4.26458 6.23742 4.54028 6.03095 4.75842C5.79153 5.01076 5.52917 5.24225 5.26723 5.47165C4.91936 5.77655 4.9106 5.77404 5.09037 6.19448C5.87036 8.02261 7.18508 9.29683 9.03412 10.0209C9.19262 10.0831 9.28855 10.073 9.40076 9.93165C9.62349 9.65053 9.86541 9.38359 10.1086 9.11915C10.4168 8.7838 10.7981 8.68036 11.2131 8.87181C11.7453 9.11748 12.2775 9.37024 12.7806 9.6693C13.3791 10.0251 13.9489 10.4297 14.5262 10.8196C14.7635 10.9802 14.9057 11.2121 14.9771 11.492C15.0184 11.6538 15.005 11.8057 14.9216 11.9441C14.8198 12.1131 14.7193 12.287 14.5908 12.4346C13.767 13.3819 12.7948 14.1497 11.7391 14.8221C11.3695 15.0573 11.002 15.016 10.615 14.9393C9.26353 14.6715 8.0389 14.0984 6.89311 13.3531C4.52186 11.8102 2.61192 9.82195 1.21628 7.3515C0.694066 6.4268 0.296563 5.44996 0.0967688 4.40055C0.0596463 4.2066 0.0367054 4.00973 0 3.76782L0 3.76823Z" fill="white"/>
</g>
<defs>
<clipPath id="clip0_1_99">
<rect width="15" height="15" fill="white"/>
</clipPath>
</defs>
</svg>
