<svg width="90" height="79" viewBox="0 0 90 79" fill="none" xmlns="http://www.w3.org/2000/svg">
<g clip-path="url(#clip0_1_124)">
<path d="M90.0004 25.3002V27.0616C89.9582 27.1672 89.8896 27.2702 89.8738 27.3785C89.2407 31.8808 86.9087 35.1975 82.8963 37.3074C82.3634 37.5873 82.2474 37.92 82.2474 38.4745C82.2606 50.9438 82.2579 63.413 82.2579 75.8796C82.2579 77.9393 81.4533 78.75 79.3904 78.75C56.4426 78.75 33.4948 78.75 10.5444 78.75C8.46832 78.75 7.67429 77.9525 7.67429 75.8902C7.67429 63.4209 7.66901 50.9517 7.68484 38.4851C7.68484 37.8936 7.53975 37.5556 6.97786 37.2625C3.2372 35.3031 0.987006 32.2056 0.15868 28.0782C-0.152601 26.5255 -0.0365303 25.0969 0.823451 23.6181C5.03367 16.3722 9.14892 9.07334 13.2457 1.76133C13.9527 0.496455 14.8681 -0.0105533 16.2847 0.00529067C20.4157 0.0528227 24.5495 0.0211347 28.6832 0.0211347C43.63 0.0211347 58.5768 0.034338 73.5262 9.33908e-06C75.0589 -0.00263133 76.0085 0.55455 76.7577 1.89337C81.1368 9.71503 85.5791 17.4997 90.003 25.2976L90.0004 25.3002ZM19.904 74.282C19.904 73.7961 19.904 73.4185 19.904 73.0409C19.904 65.7051 19.9488 58.372 19.8881 51.0362C19.8512 46.386 23.03 43.2383 26.6519 43.0059C29.4218 42.829 32.2128 42.9927 34.9932 43.0191C35.2808 43.0218 35.5709 43.1063 35.8506 43.1881C39.3459 44.2127 41.4457 47.0382 41.451 50.7933C41.4642 58.2743 41.4563 65.7553 41.4563 73.2363C41.4563 73.5769 41.4563 73.9149 41.4563 74.2397H77.7734V38.7386C72.9643 38.8257 69.2026 36.9165 66.3694 33.0717C63.7024 36.7 60.2044 38.6964 55.7304 38.7148C51.2274 38.7333 47.7083 36.7159 45.0281 33.1404C39.2034 41.2129 28.1661 39.9269 23.5628 33.0929C20.7349 36.9324 16.9442 38.8442 12.1378 38.7439V74.2846H19.9066L19.904 74.282ZM6.44499 22.8259H83.4951C83.4054 22.6385 83.3659 22.5328 83.3105 22.4351C80.0156 16.6257 76.7076 10.8215 73.4339 4.99879C73.1331 4.46274 72.7348 4.47858 72.2626 4.47858C54.0632 4.47858 35.8664 4.48386 17.667 4.46538C17.0259 4.46538 16.683 4.66079 16.3691 5.22325C13.2114 10.8426 10.0221 16.4434 6.84332 22.0496C6.7167 22.274 6.60591 22.5064 6.44499 22.8233V22.8259ZM37.0086 74.2582C37.0271 74.0496 37.0535 73.8806 37.0535 73.7116C37.0535 66.0035 37.064 58.2928 37.0482 50.5846C37.0456 48.6411 35.7292 47.3472 33.7771 47.3181C31.9041 47.2917 30.0285 47.3102 28.1556 47.3129C25.4991 47.3129 24.3595 48.451 24.3569 51.1075C24.3569 58.4934 24.3569 65.882 24.3569 73.268V74.2582H37.0086V74.2582ZM4.57202 27.3494C5.40562 31.6669 9.08825 34.5215 13.3855 34.2732C17.2792 34.0488 20.822 30.8905 21.1069 27.3494H4.57202ZM26.0162 27.3494C26.5359 31.4741 30.5878 34.5664 34.9563 34.2627C39.3459 33.9564 42.4086 30.1221 42.4666 27.3494H26.0188H26.0162ZM63.9556 27.3864H47.4418C47.8929 31.1335 51.4621 34.1729 55.464 34.2864C59.5977 34.4026 63.2302 31.4847 63.9556 27.3864V27.3864ZM68.8517 27.389C69.2157 31.1731 73.0514 34.3445 77.1508 34.3023C81.2265 34.26 85.0515 31.0384 85.3206 27.389H68.8543H68.8517Z" fill="#5EA756"/>
<path d="M57.785 64.4349C55.8804 64.4349 53.9758 64.4481 52.0712 64.4323C48.1511 64.3979 45.6609 61.9104 45.6345 57.9864C45.6134 55.1107 45.616 52.2377 45.6345 49.362C45.6609 45.4089 48.1933 42.9108 52.1582 42.9029C55.9384 42.895 59.7187 42.895 63.4989 42.9029C67.4453 42.9108 69.9619 45.4353 69.9804 49.4042C69.9936 52.2509 69.9936 55.0949 69.9804 57.9415C69.9619 61.9131 67.4691 64.4059 63.4989 64.4323C61.5943 64.4455 59.6896 64.4323 57.785 64.4323V64.4349ZM57.7692 60.0118C59.7002 60.0118 61.6338 60.0197 63.5648 60.0092C64.9577 60.0012 65.5592 59.415 65.5644 58.0366C65.5776 55.1345 65.575 52.235 65.5644 49.3329C65.5592 47.9202 64.9445 47.3181 63.5068 47.3155C59.7002 47.3075 55.8936 47.3075 52.0896 47.3155C50.6625 47.3181 50.0531 47.9281 50.0478 49.3461C50.0373 52.2192 50.0399 55.0896 50.0478 57.9626C50.0531 59.4493 50.6255 60.0039 52.145 60.0092C54.018 60.0171 55.8936 60.0092 57.7666 60.0092L57.7692 60.0118Z" fill="#5EA756"/>
</g>
<defs>
<clipPath id="clip0_1_124">
<rect width="90" height="78.75" fill="white"/>
</clipPath>
</defs>
</svg>
