<svg width="129" height="131" viewBox="0 0 129 131" fill="none" xmlns="http://www.w3.org/2000/svg">
<g clip-path="url(#clip0_1_1132)">
<path d="M25.7562 0.364985C26.7791 0.614626 27.8136 0.81901 28.8204 1.12121C36.9172 3.55192 42.3258 11.7988 41.1441 19.8924C39.8255 28.9306 32.6437 35.3526 23.83 35.3745C15.2261 35.3964 7.76162 29.005 6.51584 20.4705C6.01608 17.0442 6.45319 13.7098 7.93355 10.5462C8.61254 9.09511 9.57565 8.57539 10.6903 9.05715C11.7977 9.53599 12.057 10.628 11.413 12.0923C7.43524 21.1275 13.3246 30.8518 23.1728 31.5087C30.2279 31.9803 36.5631 26.5174 37.3908 19.2486C38.1776 12.3346 33.1129 5.58554 26.3084 4.42055C22.7255 3.8074 19.4515 4.50376 16.3291 6.34906C15.7317 6.70235 14.6316 6.69943 14.024 6.37242C13.5636 6.12424 13.3494 5.10086 13.3494 4.42347C13.3494 4.01032 13.8798 3.40155 14.3154 3.21468C16.4748 2.28766 18.6793 1.47158 20.8707 0.620465C21.1388 0.516813 21.42 0.448199 21.6954 0.363525C23.0505 0.363525 24.4041 0.363525 25.7591 0.363525L25.7562 0.364985Z" fill="#5EA756"/>
<path d="M23.7864 35.7395C14.9975 35.7395 7.42376 29.2065 6.15613 20.5245C5.63596 16.9653 6.12407 13.5565 7.60444 10.3929C8.3621 8.77245 9.54086 8.16368 10.8347 8.72282C11.3869 8.96224 11.7833 9.35203 11.9785 9.85131C12.2349 10.5053 12.1563 11.3083 11.7454 12.2397C9.89929 16.431 10.1426 20.9873 12.4112 24.7421C14.6857 28.5057 18.6168 30.8401 23.1949 31.1452C26.5126 31.3671 29.772 30.2518 32.3772 28.005C34.9853 25.7553 36.6362 22.6312 37.0267 19.2077C37.7887 12.5185 32.8508 5.91108 26.2445 4.77966C22.8292 4.19571 19.6455 4.81032 16.5114 6.66292C15.8207 7.07168 14.5764 7.08482 13.8494 6.69357C13.1645 6.32422 12.9824 5.04682 12.9839 4.42199C12.9839 3.8395 13.6221 3.11393 14.1699 2.87743C15.8382 2.16209 17.559 1.50076 19.2244 0.861328C19.7286 0.667163 20.2342 0.474458 20.7383 0.278833C20.9365 0.201459 21.1375 0.144524 21.3313 0.0890481C21.4173 0.06423 21.5018 0.0408719 21.5863 0.0145939C21.6213 0.0043747 21.6577 -0.00146484 21.6927 -0.00146484H25.7564C25.7855 -0.00146484 25.8147 0.00145493 25.8423 0.00875436C26.1644 0.0875882 26.4864 0.160583 26.8098 0.235037C27.5063 0.394164 28.2246 0.559132 28.9255 0.769355C37.1869 3.24824 42.7121 11.6703 41.5056 19.942C40.8558 24.3976 38.7372 28.4269 35.5419 31.2839C32.3422 34.1438 28.1838 35.7263 23.8316 35.7366C23.817 35.7366 23.801 35.7366 23.7864 35.7366V35.7395ZM9.91386 9.2513C9.26839 9.2513 8.71471 9.73744 8.26303 10.7024C6.84386 13.7346 6.3776 17.0033 6.87591 20.4194C8.09109 28.7452 15.3559 35.011 23.785 35.011C23.7996 35.011 23.8141 35.011 23.8287 35.011C28.0031 35.0008 31.9896 33.4854 35.0553 30.7437C38.1238 27.9992 40.1579 24.1275 40.7829 19.8413C41.9384 11.9185 36.6376 3.84972 28.7142 1.47302C28.0381 1.2701 27.33 1.10805 26.6452 0.950381C26.3334 0.878847 26.0216 0.807312 25.7098 0.731398H21.7451C21.6737 0.753296 21.6009 0.773735 21.5295 0.794173C21.343 0.848189 21.1667 0.897825 20.9991 0.96352C20.495 1.15914 19.9894 1.35331 19.4838 1.54747C17.8257 2.18399 16.1107 2.84239 14.4555 3.5519C14.1029 3.70373 13.7109 4.20155 13.7109 4.42491C13.7109 5.12712 13.9455 5.91837 14.1932 6.05268C14.7003 6.32568 15.6648 6.31838 16.1398 6.03662C19.4284 4.09352 22.7738 3.44825 26.3654 4.06286C29.7516 4.64243 32.8129 6.55926 34.9839 9.46152C37.1578 12.3667 38.1399 15.8573 37.7494 19.2924C37.3385 22.8998 35.5988 26.1904 32.8508 28.5598C30.0998 30.9321 26.6525 32.1087 23.1439 31.8752C18.324 31.554 14.1845 29.0912 11.7847 25.1217C9.39078 21.161 9.13289 16.358 11.0751 11.9462C11.4001 11.209 11.4758 10.5783 11.2966 10.1185C11.1713 9.80021 10.9178 9.55641 10.5419 9.3929C10.3233 9.29801 10.112 9.2513 9.91095 9.2513H9.91386Z" fill="#5EA756"/>
<path d="M94.3996 27.8181C87.7219 29.0634 83.2692 32.6007 81.1011 38.8666C80.4032 40.8841 80.1555 41.2491 78.0224 41.0491C75.8266 40.8433 74.4264 41.3017 73.7838 43.6725C73.4356 44.9543 72.4317 46.0565 71.6332 47.3938C72.3253 47.3938 72.9008 47.3689 73.4734 47.3996C74.6187 47.4595 75.3501 48.1529 75.3997 49.1836C75.4477 50.1953 74.7469 51.0143 73.6497 51.1705C73.2345 51.2289 72.8047 51.2041 72.3821 51.2041C66.0352 51.2099 59.6868 51.1471 53.3428 51.2552C51.1631 51.2917 48.979 51.6873 46.8182 52.045C45.1833 52.3165 44.2625 52.042 43.8953 50.8887C43.5587 49.8318 44.1037 48.9967 45.6423 48.2974C45.0391 47.5252 44.414 46.7908 43.8633 46.0025C43.3343 45.2448 42.8841 44.4317 42.3508 43.5645C38.4605 45.0331 34.9301 47.0886 31.8761 49.8654C30.0358 51.5384 28.4112 53.4523 26.7152 55.2815C25.5656 56.5224 23.7457 56.391 23.3815 54.9049C23.2212 54.2538 23.4981 53.2873 23.9235 52.7311C28.1548 47.1981 33.5269 43.1061 39.9423 40.4257C40.8734 40.0374 41.0992 39.6359 40.9389 38.6636C39.275 28.6182 46.5384 19.4983 56.949 18.5114C66.4796 17.6077 75.2394 25.4721 75.5803 35.2431C75.6022 35.8709 75.5832 36.4986 75.5832 37.1249C76.9645 37.5527 77.6144 37.16 78.2089 35.8373C81.2177 29.1466 86.4514 25.2736 93.6754 24.1232C96.1131 23.7348 98.1704 25.602 98.1967 28.2444C98.2389 32.3569 98.2491 36.4694 98.1836 40.5805C98.1675 41.6243 98.5464 42.1338 99.4104 42.6477C108.428 48.0025 114.487 55.7049 117.457 65.7942C117.731 66.7256 118.117 67.0862 119.108 67.0205C120.498 66.9285 121.9 66.9679 123.294 67.0176C126.194 67.1227 128.553 69.4147 128.591 72.3111C128.655 77.1857 128.653 82.0617 128.591 86.9362C128.553 89.8341 126.191 92.1495 123.299 92.2298C121.185 92.2882 119.067 92.2794 116.953 92.2313C116.172 92.2137 115.726 92.4298 115.41 93.1816C114.953 94.2707 114.399 95.3262 113.812 96.3525C113.235 97.3598 112.123 97.6796 111.205 97.1992C110.286 96.7189 109.965 95.6401 110.481 94.5569C111.135 93.1816 111.824 91.8225 112.519 90.4692C113.257 89.0356 114.5 88.4428 116.057 88.4356C118.257 88.4253 120.458 88.4443 122.658 88.4282C124.202 88.4166 124.8 87.8224 124.804 86.2705C124.816 81.8193 124.817 77.3682 124.804 72.917C124.8 71.4512 124.183 70.8366 122.72 70.8191C120.774 70.7972 118.827 70.8191 116.882 70.8103C115.282 70.803 114.743 70.3943 114.368 68.8848C111.727 58.2101 105.585 50.2508 95.9047 45.0652C94.7741 44.4594 94.385 43.6097 94.3938 42.3922C94.4215 38.068 94.404 33.7438 94.404 29.4196C94.404 28.9598 94.404 28.5014 94.404 27.8181H94.3996ZM58.0068 47.4346V47.3894C60.207 47.3894 62.4101 47.4463 64.6058 47.3558C65.3038 47.3266 66.1197 47.0755 66.6559 46.6434C69.9794 43.9703 71.709 40.4666 71.7789 36.1775C71.8853 29.6795 67.5243 24.1465 61.1191 22.6326C55.0184 21.1903 48.552 24.3597 45.8244 30.1277C43.0779 35.9337 44.736 42.9134 49.8372 46.7908C50.3253 47.1631 51.0421 47.3835 51.6614 47.4054C53.7741 47.4799 55.8912 47.4346 58.0068 47.4346Z" fill="#5EA756"/>
<path d="M112.072 97.7818C111.722 97.7818 111.368 97.6986 111.035 97.5234C109.917 96.9394 109.553 95.6547 110.15 94.4007C110.823 92.9831 111.53 91.5933 112.194 90.3028C112.951 88.8298 114.249 88.0794 116.054 88.0721C117.041 88.0677 118.027 88.0692 119.013 88.0706C120.207 88.0706 121.441 88.0735 122.653 88.0648C124.001 88.0546 124.434 87.6195 124.438 86.272C124.451 81.4602 124.45 77.0923 124.438 72.9199C124.434 71.6542 123.983 71.2002 122.714 71.1856C121.582 71.1724 120.43 71.1753 119.315 71.1768C118.502 71.1783 117.69 71.1797 116.877 71.1768C115.098 71.168 114.428 70.6542 114.013 68.9738C112.709 63.7051 110.513 59.051 107.487 55.1414C104.453 51.2231 100.497 47.9412 95.7313 45.3894C94.5438 44.7529 94.0178 43.8287 94.0265 42.3922C94.0469 39.2622 94.0425 36.0797 94.0396 33.0008C94.0396 31.808 94.0367 30.6153 94.0367 29.4211V28.262C87.6082 29.5773 83.4877 33.0898 81.4478 38.9878C81.0864 40.0301 80.8315 40.6915 80.3244 41.0812C79.7868 41.4929 79.0626 41.5148 77.9917 41.4156C76.0072 41.2287 74.7395 41.5557 74.1378 43.7718C73.8842 44.7047 73.3262 45.5193 72.7346 46.3835C72.5904 46.5938 72.4432 46.8084 72.299 47.0274C72.7128 47.023 73.1047 47.0186 73.4938 47.039C74.8153 47.1077 75.707 47.9442 75.7653 49.1705C75.8236 50.3836 74.9756 51.3559 73.7021 51.5355C73.3553 51.5851 73.0115 51.5793 72.6763 51.5749C72.5787 51.5749 72.4826 51.572 72.3835 51.572C70.5593 51.5734 68.7365 51.5691 66.9123 51.5661C62.4668 51.5559 57.8683 51.5472 53.3486 51.6231C51.3801 51.6567 49.3694 51.9924 47.4242 52.318L46.8763 52.4085C45.6014 52.6202 44.073 52.6508 43.547 51.0026C43.1842 49.8639 43.6971 48.9135 45.0754 48.1719C44.9836 48.0566 44.8918 47.9427 44.8015 47.8288C44.3848 47.3091 43.9535 46.7719 43.5645 46.2142C43.1929 45.6813 42.8636 45.131 42.5154 44.5485C42.4105 44.3733 42.3056 44.1966 42.1963 44.0171C38.3351 45.5105 34.946 47.569 32.1193 50.1398C30.7599 51.3764 29.4923 52.7735 28.2669 54.1253C27.8473 54.5881 27.4131 55.067 26.9803 55.5341C26.2591 56.3108 25.2697 56.6539 24.397 56.4276C23.7049 56.248 23.2051 55.7268 23.0259 54.9969C22.8219 54.1662 23.1862 53.0976 23.6335 52.5136C27.8589 46.9894 33.2995 42.8097 39.8009 40.0929C40.5731 39.7703 40.7101 39.5279 40.5775 38.7279C39.7747 33.8796 40.9709 29.0751 43.9462 25.2021C47.0556 21.1538 51.6598 18.6501 56.9125 18.1523C61.4906 17.7187 66.1925 19.2968 69.8147 22.4837C73.5404 25.7627 75.774 30.4095 75.9416 35.2344C75.9562 35.6709 75.9533 36.1103 75.9489 36.5366C75.9489 36.6417 75.9474 36.7483 75.946 36.8534C76.9193 37.0943 77.3753 36.8009 77.8736 35.6913C80.9014 28.9598 86.1978 24.9466 93.6156 23.767C94.8497 23.5714 96.0402 23.8955 96.9698 24.6823C97.9649 25.5247 98.5448 26.824 98.5594 28.2459C98.6075 33.046 98.6031 36.9687 98.5463 40.5922C98.5332 41.4462 98.778 41.8535 99.5954 42.3397C108.711 47.7529 114.838 55.6115 117.806 65.6964C118.046 66.5139 118.308 66.7125 119.083 66.6614C120.484 66.5679 121.881 66.6074 123.307 66.6585C126.434 66.7709 128.914 69.2541 128.955 72.3111C129.018 77.1361 129.018 82.0603 128.955 86.9465C128.916 90.0312 126.436 92.5145 123.309 92.5992C121.332 92.6532 119.25 92.6532 116.944 92.6006C116.268 92.5875 115.986 92.7554 115.745 93.3277C115.334 94.3073 114.82 95.3277 114.127 96.538C113.669 97.3365 112.882 97.7847 112.072 97.7847V97.7818ZM117.65 88.7976C117.118 88.7976 116.587 88.7976 116.056 88.8006C114.524 88.8064 113.472 89.4079 112.841 90.6356C112.181 91.9218 111.478 93.3058 110.807 94.7146C110.382 95.6095 110.609 96.4781 111.371 96.8766C112.138 97.2781 113.031 96.9803 113.494 96.1715C114.172 94.9861 114.674 93.9919 115.072 93.0401C115.432 92.1846 115.978 91.843 116.959 91.8663C119.252 91.9189 121.321 91.9174 123.287 91.8649C126.02 91.7904 128.19 89.6239 128.224 86.9319C128.286 82.0515 128.286 77.1346 128.224 72.3155C128.189 69.6483 126.016 67.4804 123.278 67.3826C121.871 67.3315 120.495 67.2935 119.129 67.384C117.838 67.4716 117.386 66.8512 117.105 65.8964C114.189 55.994 108.173 48.277 99.2224 42.9601C98.3394 42.436 97.7959 41.8535 97.8163 40.5732C97.8746 36.9571 97.879 33.0402 97.8294 28.2459C97.8178 27.0371 97.3326 25.9378 96.4991 25.2327C95.7342 24.586 94.7507 24.3188 93.7307 24.4809C86.5708 25.621 81.4595 29.4912 78.5395 35.9848C77.8474 37.5235 76.9878 37.9396 75.4739 37.4709C75.3209 37.4242 75.2174 37.2826 75.2174 37.122C75.2174 36.922 75.2189 36.722 75.2218 36.522C75.2262 36.1045 75.2306 35.6724 75.216 35.2534C75.0542 30.6299 72.9109 26.1729 69.3353 23.0268C65.8646 19.9713 61.3623 18.4588 56.9824 18.8734C51.9338 19.3523 47.5102 21.7567 44.5247 25.6415C41.6732 29.354 40.528 33.957 41.2973 38.6038C41.4867 39.744 41.1676 40.3075 40.0821 40.7615C33.6988 43.4287 28.3601 47.531 24.2119 52.953C23.8273 53.4552 23.6087 54.3093 23.734 54.8173C23.8491 55.2845 24.1493 55.6042 24.5806 55.7166C25.1852 55.8728 25.9181 55.6057 26.447 55.0334C26.8769 54.5706 27.3096 54.0932 27.7278 53.6319C28.9648 52.2669 30.2441 50.8566 31.6298 49.5968C34.5934 46.9018 38.1574 44.7587 42.2211 43.2244C42.3843 43.163 42.5678 43.2244 42.6596 43.3747C42.8272 43.6463 42.986 43.912 43.1405 44.1733C43.4814 44.7441 43.8034 45.2843 44.1604 45.7952C44.5349 46.3325 44.9399 46.8376 45.3683 47.3719C45.5548 47.604 45.7413 47.8376 45.9264 48.0741C45.9948 48.1617 46.0196 48.277 45.9934 48.3865C45.9671 48.4945 45.8914 48.5851 45.7908 48.6318C44.0599 49.4201 44.054 50.1939 44.2405 50.7807C44.4882 51.5574 44.9953 51.9808 46.7569 51.6888L47.3033 51.5983C49.2732 51.2683 51.3116 50.9282 53.334 50.8946C57.8596 50.8172 62.461 50.8274 66.9108 50.8377C68.7336 50.842 70.5563 50.845 72.3791 50.8435C72.4796 50.8435 72.5802 50.8435 72.6822 50.8464C73.0027 50.8508 73.3058 50.8552 73.5957 50.8128C74.4947 50.6858 75.0717 50.0391 75.0324 49.2055C74.9916 48.3544 74.4 47.8172 73.4515 47.7675C73.0756 47.7471 72.6851 47.7529 72.2742 47.7573C72.0688 47.7602 71.856 47.7631 71.6302 47.7631C71.499 47.7631 71.3781 47.6931 71.314 47.5777C71.2499 47.4639 71.2514 47.3223 71.3184 47.2098C71.5792 46.7733 71.8589 46.366 72.13 45.9704C72.6851 45.1602 73.2096 44.3937 73.4311 43.5806C74.2033 40.7309 76.1106 40.5075 78.0558 40.69C79.9572 40.8681 80.0942 40.6637 80.7557 38.7513C82.9354 32.4519 87.3751 28.7598 94.331 27.4634C94.4374 27.443 94.5467 27.4722 94.6297 27.5423C94.7128 27.6123 94.7609 27.7145 94.7609 27.8226V29.4241C94.7609 30.6168 94.7609 31.8095 94.7638 33.0022C94.7667 36.0811 94.7711 39.2666 94.7507 42.3995C94.7434 43.5616 95.1251 44.2434 96.0693 44.7485C105.779 49.9486 112.053 58.0422 114.715 68.8016C115.049 70.1505 115.432 70.4425 116.876 70.4498C117.686 70.4542 118.498 70.4512 119.308 70.4498C120.425 70.4483 121.579 70.4454 122.717 70.4585C124.38 70.4775 125.156 71.26 125.161 72.9199C125.174 77.0937 125.175 81.4632 125.161 86.2764C125.156 88.0312 124.406 88.7845 122.653 88.7976C121.438 88.8064 120.202 88.8049 119.008 88.8035C118.553 88.8035 118.1 88.8035 117.645 88.8035L117.65 88.7976ZM54.5084 47.8142C53.5584 47.8142 52.5996 47.8055 51.6496 47.7719C50.9211 47.7456 50.1431 47.4828 49.6185 47.0828C44.4139 43.1265 42.68 35.9308 45.4965 29.973C48.3086 24.0283 54.9149 20.7917 61.2035 22.2779C67.753 23.8254 72.2509 29.5438 72.1431 36.1833C72.0717 40.563 70.3028 44.1777 66.8831 46.9281C66.3178 47.3836 65.4508 47.6858 64.6203 47.7208C63.0292 47.785 61.4119 47.7734 59.847 47.7631C59.2919 47.7588 58.7367 47.7558 58.1816 47.7544C58.1292 47.7836 58.0694 47.7996 58.0053 47.7996C57.421 47.7996 56.8367 47.8026 56.2539 47.8069C55.6784 47.8099 55.0941 47.8142 54.5069 47.8142H54.5084ZM58.1175 22.6487C53.1344 22.6487 48.3859 25.567 46.1551 30.2854C43.4843 35.9322 45.1264 42.7514 50.0585 46.5003C50.4636 46.8084 51.0989 47.0201 51.6759 47.0405C53.197 47.0945 54.7503 47.0843 56.2525 47.0755C56.7785 47.0726 57.3059 47.0697 57.8319 47.0682C57.8844 47.039 57.9441 47.023 58.0082 47.023C58.6231 47.023 59.238 47.0274 59.8543 47.0317C61.4104 47.0434 63.019 47.0551 64.5926 46.9909C65.2643 46.9631 65.9856 46.7149 66.43 46.3587C69.6719 43.7514 71.349 40.3236 71.4175 36.1716C71.5194 29.8781 67.2517 24.4561 61.0389 22.9874C60.0685 22.7582 59.0893 22.6473 58.119 22.6473L58.1175 22.6487Z" fill="#5EA756"/>
<path d="M80.8053 116.21H52.537C52.266 118.198 52.081 120.175 51.7152 122.117C50.7288 127.337 46.3285 130.837 41.1254 130.625C36.0986 130.42 31.9168 126.455 31.369 121.267C30.9158 116.97 30.5822 112.661 30.1451 108.363C30.0911 107.833 29.8595 107.178 29.4792 106.848C20.9263 99.4066 16.3191 90.0283 15.5964 78.7142C15.5891 78.5945 15.5425 78.4762 15.4813 78.2178C12.1694 78.358 8.91291 78.6412 6.17803 80.8237C4.3742 82.2632 3.7229 84.4004 4.48056 86.1158C5.14935 87.6297 6.82059 88.1991 7.86529 87.1947C8.21499 86.8589 8.39857 86.2662 8.48745 85.761C8.69727 84.5566 9.39811 83.8121 10.4516 83.834C11.5443 83.8574 12.2787 84.6997 12.3137 85.9727C12.4288 90.0371 7.76476 92.7977 4.00557 90.8896C1.01133 89.3699 -0.406385 85.6063 0.792768 82.1361C2.1624 78.1726 5.30088 76.2105 9.11107 75.2367C11.1815 74.7082 13.3453 74.5418 15.2963 74.2396C16.0656 70.9417 16.797 67.6088 17.6392 64.3051C17.9393 63.1255 18.477 62.0014 18.9622 60.8758C19.5829 59.4335 20.6189 58.9137 21.7189 59.4232C22.787 59.9181 23.0798 60.9678 22.4577 62.3678C20.8972 65.8789 19.851 69.5315 19.5377 73.3637C18.6489 84.2851 21.9637 93.7349 29.5302 101.668C29.6176 101.758 29.7196 101.836 29.8201 101.912C29.8478 101.932 29.8988 101.921 30.0096 101.931C30.2733 99.7322 30.5064 97.5263 30.8124 95.3291C31.0324 93.7495 31.8731 93.0284 33.0956 93.2342C34.2875 93.4342 34.7989 94.4518 34.5395 96.0095C33.6274 101.488 33.8052 106.994 34.2481 112.494C34.4725 115.28 34.828 118.057 35.15 120.833C35.5536 124.309 38.2579 126.81 41.5946 126.819C44.9808 126.829 47.7025 124.289 48.1018 120.755C48.3495 118.566 48.6088 116.378 48.858 114.189C49.0299 112.687 49.8211 112.141 51.3481 112.154C60.95 112.233 70.552 112.265 80.154 112.309C80.1889 112.309 80.2239 112.27 80.2705 112.242C80.2705 110.912 80.3099 109.575 80.2603 108.24C80.1962 106.484 80.7135 105.582 81.9476 105.464C83.1992 105.344 83.9175 106.232 84.0734 108.027C84.4319 112.163 84.7859 116.299 85.1837 120.43C85.5378 124.109 88.1969 126.746 91.5554 126.817C95.0552 126.892 97.7318 124.458 98.1602 120.619C98.6352 116.368 98.9251 112.096 99.4103 107.846C99.4992 107.064 99.9742 106.182 100.544 105.623C102.17 104.024 103.958 102.592 105.639 101.048C106.767 100.011 107.764 99.8533 108.636 100.704C109.498 101.542 109.442 102.642 108.358 103.709C107.002 105.043 105.625 106.369 104.152 107.569C103.42 108.164 103.13 108.776 103.053 109.686C102.731 113.484 102.378 117.28 101.959 121.07C101.338 126.671 97.0995 130.615 91.7623 130.636C86.4513 130.658 82.0656 126.596 81.3968 121.036C81.206 119.448 81.0093 117.86 80.8067 116.211L80.8053 116.21Z" fill="#5EA756"/>
<path d="M91.7184 131C86.2166 131 81.7274 126.835 81.0338 121.079C80.9027 119.988 80.7687 118.899 80.6331 117.791L80.4845 116.576H52.8559C52.7874 117.096 52.7233 117.619 52.6607 118.127C52.496 119.462 52.327 120.844 52.0735 122.187C51.0827 127.435 46.8033 131.001 41.5813 131.001C41.4254 131.001 41.2695 130.999 41.1106 130.991C38.5856 130.889 36.1727 129.855 34.3164 128.08C32.4558 126.302 31.2799 123.896 31.0074 121.306C30.7641 119 30.5514 116.652 30.3474 114.381C30.1696 112.42 29.9875 110.392 29.785 108.401C29.7325 107.881 29.5096 107.356 29.243 107.124C24.9549 103.392 21.6007 99.1088 19.2767 94.3948C16.9571 89.6896 15.5977 84.4223 15.2349 78.7375C15.2334 78.7054 15.2218 78.6601 15.2043 78.5959C9.65874 78.863 7.87531 79.9375 6.4066 81.1084C4.7543 82.4266 4.11466 84.38 4.8155 85.9668C5.12877 86.6764 5.69993 87.1756 6.34103 87.3026C6.81457 87.3961 7.26626 87.2647 7.61304 86.9304C7.84617 86.707 8.0283 86.269 8.12738 85.6968C8.37508 84.2763 9.25222 83.4456 10.4572 83.4675C11.7423 83.4938 12.634 84.4967 12.6763 85.961C12.7317 87.926 11.719 89.7655 9.96763 90.8779C8.10844 92.0604 5.75967 92.1874 3.83928 91.2137C0.652707 89.5961 -0.805801 85.6413 0.447263 82.0149C1.70907 78.3667 4.51243 76.0323 9.02055 74.8805C10.4805 74.5082 11.9711 74.314 13.4121 74.1286C13.9614 74.0571 14.4845 73.9899 14.9974 73.914C15.1955 73.0615 15.3922 72.2074 15.5875 71.3519C16.1251 69.0103 16.6803 66.5883 17.2849 64.2131C17.5414 63.2058 17.9654 62.2379 18.3763 61.3021C18.4608 61.1108 18.5438 60.9196 18.6254 60.7283C19.0057 59.8436 19.5521 59.2436 20.2049 58.994C20.728 58.794 21.3035 58.8261 21.8703 59.0889C23.1379 59.6758 23.4803 60.9561 22.7897 62.5138C21.1388 66.2306 20.1932 69.7884 19.9004 73.3914C19.4618 78.7813 20.0694 83.869 21.7071 88.5129C23.3361 93.1349 26.0302 97.4459 29.715 101.331C29.7704 100.855 29.8258 100.38 29.8811 99.9044C30.0575 98.3876 30.2381 96.8182 30.4523 95.2765C30.5864 94.3145 30.9346 93.6196 31.4883 93.2137C31.94 92.8823 32.5155 92.7641 33.1566 92.8721C34.5423 93.1057 35.1936 94.2999 34.9007 96.0678C33.9463 101.808 34.2188 107.576 34.6122 112.464C34.79 114.674 35.0551 116.916 35.313 119.087C35.3801 119.655 35.4471 120.223 35.5141 120.791C35.8929 124.063 38.453 126.445 41.5973 126.454H41.6162C44.7911 126.454 47.3658 124.042 47.7417 120.712C47.8816 119.471 48.0258 118.232 48.1701 116.992C48.2793 116.043 48.3901 115.096 48.4979 114.147C48.6815 112.54 49.5732 111.788 51.3013 111.788C51.3187 111.788 51.3348 111.788 51.3522 111.788C58.9041 111.851 66.5828 111.884 74.0079 111.916C75.975 111.925 77.9405 111.934 79.9075 111.943C79.9075 111.632 79.9119 111.321 79.9148 111.01C79.9221 110.105 79.9308 109.17 79.8988 108.255C79.8726 107.525 79.7924 105.306 81.9154 105.102C82.5186 105.043 83.03 105.188 83.4394 105.528C84.0004 105.996 84.337 106.827 84.439 107.997L84.5541 109.315C84.8688 112.948 85.1952 116.705 85.5492 120.395C85.8858 123.893 88.3599 126.384 91.5654 126.452C94.8875 126.522 97.3994 124.162 97.8016 120.578C98.0332 118.508 98.2241 116.395 98.4092 114.351C98.603 112.204 98.804 109.983 99.0517 107.804C99.1479 106.967 99.6345 106.008 100.292 105.361C101.274 104.395 102.329 103.478 103.349 102.592C104.026 102.002 104.725 101.393 105.396 100.779C107.031 99.2766 108.201 99.7672 108.893 100.442C109.353 100.89 109.598 101.423 109.599 101.983C109.601 102.648 109.261 103.334 108.616 103.969C107.371 105.192 105.916 106.604 104.383 107.852C103.751 108.367 103.488 108.872 103.417 109.716C103.048 114.064 102.7 117.683 102.321 121.109C102.012 123.901 100.79 126.423 98.8783 128.212C96.9681 129.998 94.4416 130.99 91.7635 131C91.749 131 91.7344 131 91.7198 131H91.7184ZM52.5368 115.845H80.8051C80.9887 115.845 81.1446 115.982 81.1664 116.166L81.3544 117.702C81.4899 118.811 81.6239 119.9 81.7551 120.991C82.4035 126.374 86.5896 130.27 91.7169 130.27C91.73 130.27 91.7446 130.27 91.7577 130.27C96.9492 130.25 100.994 126.448 101.594 121.027C101.973 117.608 102.32 113.994 102.687 109.654C102.776 108.613 103.133 107.925 103.92 107.284C105.428 106.056 106.869 104.659 108.101 103.448C108.603 102.954 108.868 102.448 108.866 101.985C108.866 101.62 108.702 101.277 108.381 100.964C107.903 100.499 107.186 100.118 105.884 101.316C105.206 101.938 104.503 102.551 103.822 103.142C102.811 104.021 101.765 104.931 100.799 105.881C100.261 106.41 99.8487 107.215 99.773 107.886C99.5253 110.058 99.3256 112.273 99.1319 114.416C98.9468 116.462 98.7559 118.579 98.5228 120.657C98.0842 124.578 95.3566 127.181 91.7111 127.181C91.6572 127.181 91.6033 127.181 91.5479 127.179C88.0175 127.105 85.1879 124.28 84.8222 120.464C84.4666 116.77 84.1417 113.011 83.8255 109.376L83.7104 108.058C83.6259 107.09 83.3768 106.426 82.9703 106.087C82.7138 105.872 82.3903 105.788 81.9824 105.827C81.2699 105.896 80.5516 106.234 80.6244 108.227C80.6579 109.159 80.6492 110.103 80.6419 111.016C80.639 111.424 80.6346 111.833 80.6346 112.242C80.6346 112.37 80.5676 112.49 80.4568 112.556L80.4452 112.565C80.3971 112.6 80.298 112.674 80.1538 112.674H80.1523C78.1022 112.665 76.0522 112.655 74.0036 112.646C66.577 112.614 58.8983 112.581 51.345 112.518C49.9345 112.509 49.3648 112.97 49.2206 114.229C49.1128 115.178 49.002 116.127 48.8927 117.076C48.7485 118.315 48.6057 119.554 48.4644 120.794C48.0462 124.499 45.1671 127.182 41.6162 127.182H41.5944C38.0741 127.172 35.2125 124.518 34.7885 120.874C34.7229 120.306 34.6559 119.74 34.5889 119.172C34.331 116.995 34.0643 114.746 33.8851 112.522C33.4888 107.591 33.2134 101.766 34.1809 95.9481C34.3412 94.9889 34.2712 93.8006 33.0357 93.5933C32.5869 93.5174 32.211 93.5889 31.9181 93.8035C31.5349 94.0853 31.277 94.6298 31.1721 95.3787C30.9594 96.9116 30.7772 98.4766 30.6024 99.9891C30.5252 100.65 30.4494 101.312 30.3707 101.972C30.3474 102.167 30.174 102.309 29.9788 102.291C29.9467 102.288 29.9205 102.288 29.9001 102.288C29.8302 102.288 29.7136 102.285 29.6029 102.204C29.4848 102.116 29.3697 102.029 29.2648 101.919C21.6721 93.9583 18.2757 84.3391 19.1718 73.333C19.472 69.6468 20.4365 66.0117 22.1209 62.2189C22.491 61.3838 22.695 60.2787 21.5614 59.7531C21.1724 59.5721 20.8023 59.5473 20.4628 59.6772C19.998 59.8553 19.5944 60.3196 19.2928 61.0189C19.2097 61.2116 19.1252 61.4043 19.0407 61.597C18.6429 62.505 18.2306 63.4452 17.9887 64.3941C17.3855 66.7591 16.8318 69.1767 16.2956 71.5154C16.08 72.4527 15.8658 73.3885 15.6487 74.3213C15.6152 74.4659 15.4971 74.5768 15.35 74.5987C14.7497 74.6921 14.145 74.7695 13.5039 74.8527C12.0847 75.0367 10.616 75.2265 9.19831 75.5885C4.94664 76.6747 2.30792 78.8543 1.13353 82.2544C-0.00150905 85.5376 1.30255 89.11 4.16566 90.564C5.85875 91.4239 7.93068 91.3086 9.57569 90.2633C11.1085 89.2895 11.9944 87.6895 11.9463 85.9829C11.9157 84.9011 11.3387 84.2164 10.4397 84.1989C10.4266 84.1989 10.4135 84.1989 10.4018 84.1989C9.29302 84.1989 8.94915 85.2136 8.84279 85.8238C8.75391 86.3362 8.55429 87.0355 8.11426 87.4574C7.59118 87.9611 6.90928 88.1596 6.19678 88.0194C5.3211 87.8457 4.55469 87.1902 4.14526 86.2632C3.30891 84.3683 4.03306 82.0675 5.94909 80.539C8.73934 78.3127 12.0425 77.9988 15.4636 77.8543C15.6414 77.8484 15.7929 77.9652 15.8337 78.1346C15.8556 78.2251 15.8745 78.2981 15.892 78.3594C15.9255 78.482 15.9517 78.5798 15.959 78.6922C16.316 84.2792 17.6507 89.4545 19.9266 94.0721C22.2069 98.7 25.5013 102.904 29.7165 106.573C30.2119 107.004 30.4509 107.786 30.5062 108.326C30.7088 110.322 30.8923 112.351 31.0701 114.315C31.2755 116.582 31.4868 118.928 31.7301 121.229C31.9851 123.647 33.0823 125.892 34.8176 127.55C36.5457 129.201 38.791 130.165 41.1398 130.26C46.2016 130.467 50.4052 127.089 51.3566 122.048C51.6058 120.728 51.7748 119.359 51.9365 118.035C52.0123 117.422 52.0895 116.787 52.1755 116.159C52.2003 115.978 52.3547 115.843 52.5368 115.843V115.845Z" fill="#5EA756"/>
<path d="M26.0649 25.6692C25.8929 27.6722 25.3436 28.4824 24.1503 28.5379C22.9337 28.5948 22.3261 27.8152 22.0638 25.6794C21.4343 25.6794 20.7714 25.7217 20.1172 25.6706C18.9282 25.5772 18.1472 24.7772 18.1676 23.7451C18.1866 22.7042 18.9778 21.9363 20.1842 21.8998C21.6631 21.8545 23.1449 21.8837 24.6267 21.8822C25.3538 21.8822 26.0794 21.7611 26.0998 20.8676C26.1217 19.9056 25.3859 19.7435 24.5961 19.7493C23.9186 19.7552 23.2425 19.7596 22.565 19.7464C19.9627 19.6983 17.9505 17.9581 17.6548 15.5098C17.3619 13.0937 18.8262 10.9433 21.2566 10.2236C21.5363 10.1404 21.8161 10.0572 22.0856 9.97687C22.3377 7.93887 22.8462 7.2352 24.0556 7.22352C25.2897 7.21184 25.8623 7.97098 26.0896 10.0469C26.5253 10.0469 26.9813 10.0221 27.433 10.0513C28.6263 10.1272 29.384 10.882 29.3811 11.9609C29.3782 13.0485 28.6263 13.8149 27.4257 13.847C25.9454 13.8864 24.4636 13.8689 22.9832 13.8572C22.1935 13.8514 21.4518 13.9813 21.4737 14.9522C21.4941 15.8544 22.2197 15.9434 22.9497 15.9376C23.7948 15.9303 24.6486 15.8923 25.4864 15.9799C27.8731 16.231 29.588 17.8982 29.8954 20.1888C30.1956 22.4268 29.0198 24.4093 26.8342 25.3466C26.5704 25.459 26.3053 25.5685 26.0663 25.6692H26.0649Z" fill="#5EA756"/>
<path d="M24.0339 28.9043C22.4443 28.9043 21.962 27.513 21.7464 26.0458C21.6589 26.0458 21.5715 26.0487 21.4826 26.0502C21.0295 26.0589 20.5603 26.0692 20.0882 26.0312C18.7186 25.9232 17.7788 24.9786 17.8021 23.7348C17.8254 22.4793 18.8002 21.5727 20.1713 21.5304C21.2218 21.4982 22.2869 21.5041 23.3171 21.5085C23.7527 21.5099 24.1884 21.5128 24.624 21.5114C25.5434 21.5114 25.7226 21.2793 25.7328 20.8544C25.7387 20.6194 25.6891 20.4515 25.5828 20.3435C25.424 20.1829 25.1092 20.1084 24.5978 20.1114C23.9101 20.1172 23.2369 20.1216 22.5565 20.1084C19.775 20.0559 17.6098 18.1828 17.2907 15.5507C16.9774 12.9725 18.5656 10.6367 21.1504 9.87025L21.7522 9.69068C21.997 7.94466 22.4938 6.86872 24.05 6.85413C24.0602 6.85413 24.0704 6.85413 24.0791 6.85413C25.7372 6.85413 26.2078 8.16948 26.4089 9.67463C26.4366 9.67463 26.4643 9.67463 26.492 9.67463C26.8038 9.66879 27.1272 9.66441 27.4536 9.68485C28.8262 9.77244 29.7456 10.6863 29.7427 11.9593C29.7397 13.2674 28.8101 14.1725 27.4318 14.209C26.0825 14.2455 24.7115 14.2339 23.3855 14.2222L22.9776 14.2193C22.6454 14.2163 22.182 14.2368 21.9795 14.4412C21.8775 14.5448 21.8309 14.7083 21.8352 14.9404C21.8454 15.3638 22.0072 15.5682 22.8901 15.5682C22.9076 15.5682 22.9251 15.5682 22.9441 15.5682C23.1087 15.5682 23.2733 15.5638 23.438 15.5609C24.1199 15.5507 24.8251 15.539 25.5216 15.612C28.0627 15.8806 29.9204 17.6558 30.2526 20.1347C30.5761 22.5464 29.3201 24.6706 26.9743 25.6764C26.7921 25.7538 26.61 25.8297 26.4366 25.9027L26.406 25.9159C26.2559 27.3801 25.8392 28.8181 24.1665 28.897C24.1213 28.8984 24.0776 28.8999 24.0339 28.8999V28.9043ZM22.064 25.3129C22.2476 25.3129 22.4035 25.4502 22.4253 25.6326C22.7197 28.0356 23.4322 28.2035 24.133 28.1714C24.9694 28.132 25.5245 27.694 25.7008 25.6356C25.7124 25.4998 25.7984 25.383 25.9223 25.3304L26.1568 25.2326C26.3288 25.1611 26.508 25.0852 26.6872 25.0093C28.7198 24.1363 29.8082 22.307 29.5299 20.2354C29.2429 18.1011 27.6387 16.5726 25.4444 16.3405C24.7916 16.2719 24.1082 16.2821 23.4482 16.2923C23.2821 16.2952 23.116 16.2981 22.9499 16.2996C22.4545 16.304 21.1373 16.3156 21.1067 14.958C21.0965 14.5244 21.216 14.1784 21.4593 13.9287C21.8483 13.5331 22.4472 13.4849 22.9819 13.4878L23.3899 13.4908C24.71 13.5024 26.0738 13.5141 27.4114 13.4776C28.3963 13.4514 29.0112 12.8674 29.0127 11.9564C29.0156 11.0674 28.3993 10.4761 27.4055 10.4133C27.1083 10.3944 26.8009 10.4002 26.5036 10.4046C26.3637 10.4075 26.2239 10.4089 26.0869 10.4089C25.9004 10.4089 25.7445 10.2688 25.7241 10.0834C25.4939 7.98262 24.9329 7.57385 24.0558 7.58407C23.1845 7.59283 22.6964 7.97094 22.4428 10.0177C22.4253 10.1622 22.3233 10.2819 22.1849 10.3228L21.3559 10.5695C19.0829 11.2425 17.7395 13.209 18.0134 15.4616C18.2873 17.7215 20.1611 19.3318 22.5696 19.377C23.2398 19.3902 23.9086 19.3858 24.5905 19.3785C25.048 19.3756 25.695 19.4165 26.1015 19.8281C26.3506 20.0807 26.4716 20.4311 26.4614 20.869C26.4308 22.2369 25.0713 22.2384 24.6255 22.2399C24.1869 22.2399 23.7513 22.2384 23.3141 22.237C22.2898 22.2326 21.232 22.2267 20.1946 22.2588C19.2009 22.2895 18.5481 22.8735 18.5306 23.7465C18.5146 24.599 19.163 25.2239 20.1451 25.3013C20.5807 25.3348 21.0309 25.3261 21.4666 25.3173C21.6677 25.3129 21.8673 25.3086 22.0625 25.3086L22.064 25.3129Z" fill="#5EA756"/>
<path d="M103.72 62.6553C103.72 63.3327 103.748 64.0116 103.714 64.6875C103.655 65.8671 102.874 66.651 101.813 66.6437C100.803 66.6364 99.9843 65.889 99.9391 64.7868C99.8808 63.3488 99.8808 61.9064 99.9362 60.4684C99.9814 59.2932 100.813 58.5589 101.905 58.5983C102.936 58.6348 103.655 59.3633 103.714 60.4962C103.752 61.2144 103.722 61.9356 103.722 62.6553H103.72Z" fill="#5EA756"/>
<path d="M101.828 67.0088H101.811C100.569 67 99.6288 66.0715 99.5764 64.8014C99.5181 63.3737 99.5166 61.9123 99.5735 60.4539C99.6259 59.0991 100.589 58.1852 101.918 58.2319C103.142 58.2757 104.01 59.1765 104.079 60.4758C104.105 60.9824 104.099 61.4933 104.092 61.9868C104.089 62.2087 104.086 62.432 104.086 62.6539C104.086 62.8627 104.089 63.0715 104.092 63.2817C104.098 63.7474 104.103 64.2277 104.08 64.7051C104.012 66.0642 103.086 67.0088 101.829 67.0088H101.828ZM101.823 58.9604C100.945 58.9604 100.336 59.5634 100.301 60.4816C100.245 61.9196 100.247 63.3634 100.303 64.7708C100.34 65.6525 100.961 66.273 101.816 66.2774H101.828C102.692 66.2774 103.304 65.6321 103.352 64.6671C103.375 64.2131 103.369 63.743 103.363 63.289C103.36 63.0773 103.357 62.8642 103.357 62.6525C103.357 62.4276 103.36 62.2014 103.363 61.9751C103.369 61.4933 103.376 60.994 103.352 60.5108C103.304 59.5838 102.744 58.9882 101.893 58.959C101.87 58.959 101.846 58.959 101.825 58.959L101.823 58.9604Z" fill="#5EA756"/>
<path d="M56.4462 43.7995C55.6638 43.7995 54.9863 43.8609 54.3233 43.7864C53.2145 43.6608 52.518 42.8419 52.5545 41.8243C52.5909 40.7907 53.3194 40.0579 54.4588 40.0257C55.98 39.9834 57.5041 40.0068 59.0267 40.0111C59.7771 40.0126 60.459 39.8126 60.4837 38.96C60.5085 38.0841 59.8164 37.8841 59.0704 37.8812C58.3098 37.8768 57.5463 37.9001 56.7872 37.8666C54.1995 37.7527 52.3053 36.0067 52.0037 33.4825C51.7254 31.1584 53.315 28.9671 55.7556 28.3072C55.9581 28.2517 56.1592 28.1904 56.3486 28.135C56.8324 25.9276 57.3992 25.221 58.5881 25.3203C59.7013 25.4137 60.2215 26.167 60.4167 28.1525C60.8786 28.1525 61.3696 28.1174 61.8519 28.1598C63.0132 28.262 63.8131 29.0926 63.781 30.1204C63.749 31.1715 62.9563 31.9161 61.7499 31.9482C60.3978 31.9832 59.0427 31.9613 57.6891 31.9599C56.8775 31.9599 55.8722 31.8708 55.8518 32.9832C55.827 34.2285 56.9125 34.0373 57.7401 34.0592C58.4162 34.0782 59.0966 34.049 59.7683 34.1088C62.1579 34.322 63.8757 35.9001 64.2779 38.2155C64.6451 40.3323 63.4124 42.4871 61.2851 43.4229C60.7985 43.6375 60.3103 43.7061 60.2958 44.4871C60.271 45.8697 59.5585 46.6157 58.4919 46.6478C57.3802 46.6814 56.6531 45.8813 56.5162 44.4711C56.5002 44.3047 56.4827 44.1397 56.4462 43.7981V43.7995Z" fill="#5EA756"/>
<path d="M58.4234 47.0157C57.1529 47.0157 56.3078 46.0843 56.1533 44.5091C56.1431 44.4083 56.1329 44.3076 56.1184 44.1689C55.9872 44.1718 55.859 44.1747 55.7337 44.1777C55.231 44.1908 54.7575 44.2025 54.281 44.1499C53.0061 44.0054 52.145 43.0448 52.1887 41.8126C52.2324 40.563 53.1402 39.6987 54.4471 39.6622C55.6332 39.6301 56.8367 39.6359 58.0023 39.6432C58.3433 39.6447 58.6842 39.6476 59.0266 39.6476H59.0368C59.9694 39.6476 60.1078 39.3133 60.118 38.9513C60.1238 38.7425 60.0786 38.5921 59.9796 38.4885C59.828 38.3308 59.5206 38.2491 59.0674 38.2476C58.8241 38.2476 58.5808 38.2476 58.336 38.2491C57.8231 38.252 57.2942 38.2549 56.7697 38.2315C54.0231 38.1104 51.9629 36.2198 51.6409 33.5263C51.3407 31.0095 53.0309 28.6664 55.6594 27.9554C55.7876 27.9204 55.9144 27.8824 56.0397 27.8459C56.4855 25.913 57.0771 24.8283 58.6172 24.9568C60.1398 25.0838 60.5653 26.3539 60.7416 27.7846L60.8436 27.7817C61.1816 27.7744 61.5299 27.7656 61.8825 27.7963C63.2302 27.9145 64.1817 28.897 64.1438 30.1321C64.1045 31.4007 63.1457 32.2767 61.7572 32.3132C60.7766 32.338 59.7814 32.3336 58.8197 32.3292C58.4424 32.3278 58.065 32.3263 57.6876 32.3263H57.5171C56.5278 32.319 56.2262 32.4095 56.2145 32.992C56.2102 33.2358 56.2568 33.4095 56.353 33.5088C56.5409 33.7001 57.0013 33.6971 57.405 33.6957C57.5215 33.6957 57.6381 33.6957 57.7488 33.6971C57.9819 33.703 58.2151 33.7044 58.4482 33.7044C58.8897 33.7044 59.3457 33.7074 59.7989 33.7468C62.3487 33.9745 64.2021 35.6621 64.6348 38.1542C65.0326 40.4476 63.7154 42.7528 61.4308 43.7587C61.3594 43.7908 61.288 43.8185 61.2166 43.8463C60.8159 44.0054 60.6673 44.0652 60.6585 44.4945C60.6309 46.0098 59.8047 46.9748 58.5021 47.0142C58.4759 47.0142 58.4482 47.0142 58.4234 47.0142V47.0157ZM56.4462 43.4346C56.6327 43.4346 56.7886 43.5762 56.809 43.7616L56.8396 44.055C56.8571 44.2171 56.8688 44.3266 56.879 44.4375C56.946 45.1324 57.2388 46.2857 58.4249 46.2857C58.4438 46.2857 58.4628 46.2857 58.4817 46.2857C59.3967 46.258 59.9111 45.6186 59.9315 44.4828C59.9475 43.5674 60.526 43.3368 60.9485 43.1689C61.0111 43.1441 61.0753 43.1192 61.1379 43.09C63.1151 42.2199 64.2589 40.2403 63.918 38.2783C63.545 36.1278 61.9422 34.6694 59.7348 34.4738C59.3122 34.4358 58.8722 34.4344 58.4467 34.4329C58.2078 34.4329 57.9674 34.4329 57.7284 34.4242C57.625 34.4212 57.5171 34.4212 57.4079 34.4227C56.86 34.4256 56.2364 34.43 55.8328 34.0183C55.5938 33.7745 55.4758 33.4241 55.4846 32.9759C55.5122 31.5788 56.7682 31.5891 57.5215 31.5934H57.6876C58.0665 31.5934 58.4438 31.5964 58.8227 31.5978C59.7799 31.6022 60.7678 31.6066 61.7382 31.5818C62.7305 31.5555 63.3876 30.9774 63.4153 30.1087C63.4415 29.2737 62.7698 28.6065 61.8184 28.5233C61.5051 28.4956 61.1773 28.5029 60.8596 28.5102C60.7095 28.5131 60.5609 28.5175 60.4152 28.5175C60.2273 28.5175 60.0714 28.3744 60.0524 28.189C59.8557 26.1816 59.3545 25.751 58.556 25.6838C57.7109 25.6137 57.1908 25.9846 56.7027 28.2123C56.6735 28.3423 56.5759 28.4474 56.4477 28.4839L56.267 28.5364C56.13 28.5773 55.9902 28.6182 55.8488 28.6561C53.5714 29.2722 52.1057 31.2825 52.3636 33.4358C52.6462 35.7979 54.3874 37.3921 56.8017 37.4987C57.3073 37.5206 57.829 37.5177 58.3316 37.5147C58.5779 37.5147 58.8241 37.5118 59.0704 37.5133C59.7362 37.5162 60.2054 37.668 60.5026 37.9775C60.7416 38.2257 60.8567 38.5586 60.845 38.9673C60.8261 39.6097 60.4968 40.3732 59.0339 40.3732H59.0223C58.6799 40.3732 58.3389 40.3703 57.9965 40.3688C56.8382 40.363 55.6405 40.3557 54.4646 40.3878C53.5379 40.4126 52.9449 40.9674 52.9143 41.8331C52.8852 42.6798 53.4665 43.3178 54.3612 43.4185C54.7866 43.4667 55.2369 43.455 55.7119 43.4419C55.9464 43.436 56.1898 43.4287 56.4433 43.4287L56.4462 43.4346Z" fill="#5EA756"/>
</g>
<defs>
<clipPath id="clip0_1_1132">
<rect width="129" height="131" fill="white"/>
</clipPath>
</defs>
</svg>
