<svg width="90" height="97" viewBox="0 0 90 97" fill="none" xmlns="http://www.w3.org/2000/svg">
<path d="M80.7814 0C81.6744 0.436665 81.9536 1.16946 81.9787 2.13815C82.2529 12.3395 82.5547 22.5409 82.854 32.7398C82.9572 36.3059 83.0678 39.8745 83.1785 43.4406C83.186 43.679 83.2238 43.9174 83.2615 44.2863C84.6022 43.5435 85.8523 42.8458 87.1074 42.1557C88.8656 41.1895 90 41.8395 90 43.8196C90 60.5358 90 77.2545 90 93.9707C90 95.6346 89.4592 96.1766 87.8092 96.1766C59.2882 96.1766 30.7647 96.1766 2.24365 96.1766C0.538274 96.1766 0.0176071 95.6471 0.0176071 93.9105C0.0150918 82.5798 0.025153 71.2491 0 59.9159C0 58.8067 0.409994 58.1366 1.3809 57.6021C10.6548 52.4926 19.9262 47.3831 29.1498 42.1833C30.8477 41.2272 32.2436 41.9549 32.1959 44.0027C32.1078 47.7897 32.1707 51.5791 32.1707 55.3661C32.1707 55.7074 32.1707 56.0462 32.1707 56.5405C32.5807 56.3247 32.8775 56.1767 33.1668 56.016C41.4974 51.401 49.8206 46.7783 58.1663 42.1908C58.677 41.9098 59.3712 41.709 59.9195 41.8094C60.8728 41.9826 61.069 42.8182 61.0665 43.7066C61.0564 47.5889 61.0615 51.4712 61.0615 55.3535C61.0615 55.6948 61.0615 56.0361 61.0615 56.5857C62.3719 55.863 63.5265 55.1327 64.7615 54.573C65.755 54.1213 66.0568 53.4889 66.0845 52.4173C66.5146 35.8015 66.9925 19.1856 67.4554 2.5698C67.4855 1.50825 67.5283 0.471799 68.7331 0.00250957H80.7839L80.7814 0ZM30.5332 92.9393C30.5332 89.8325 30.5257 86.8285 30.5358 83.8246C30.5408 82.359 31.1369 81.7441 32.5832 81.7416C40.8661 81.7316 49.149 81.7316 57.4319 81.7416C58.8782 81.7416 59.4743 82.359 59.4793 83.8246C59.4919 86.5173 59.4818 89.2076 59.4818 91.9004C59.4818 92.2341 59.4818 92.5679 59.4818 92.9117H86.715V46.0556C86.2597 46.304 85.9051 46.4922 85.5529 46.688C77.3078 51.2579 69.0601 55.8278 60.815 60.3952C58.9763 61.4141 57.8519 60.7491 57.8469 58.6411C57.8419 54.8215 57.8469 51.0019 57.8469 47.1849C57.8469 46.8536 57.8469 46.5249 57.8469 46.0606C57.4042 46.2865 57.0999 46.4295 56.8056 46.5901C48.4774 51.2052 40.1518 55.8228 31.8211 60.4379C30.0805 61.4016 28.9587 60.7391 28.9562 58.7439C28.9486 54.8943 28.9536 51.0446 28.9536 47.1924C28.9536 46.8611 28.9536 46.5299 28.9536 46.0355C28.5109 46.2664 28.2116 46.4144 27.9224 46.5751C19.9765 50.9743 12.0332 55.3811 4.0773 59.7653C3.45854 60.1066 3.19946 60.463 3.20198 61.2083C3.23216 71.4449 3.2221 81.6814 3.2221 91.9179V92.9443H30.5332V92.9393ZM70.4838 9.65681C70.0788 23.7606 69.6764 37.8091 69.2714 51.9154C69.5003 51.8552 69.5984 51.8502 69.6738 51.81C72.9639 49.9931 76.2589 48.1862 79.5263 46.3291C79.7879 46.1811 79.9916 45.6917 79.9891 45.3629C79.979 43.4858 79.8935 41.6086 79.8382 39.7315C79.564 30.0947 79.2924 20.458 79.0157 10.8238C79.0056 10.4323 78.9478 10.0433 78.9126 9.65681H70.4813H70.4838ZM43.3286 92.9368V85.0116H33.8082V92.9368H43.3286ZM56.2145 85.0015H46.679V92.9268H56.2145V85.0015ZM78.7742 6.37932V3.26746H70.6775V6.37932H78.7742Z" fill="#5EA756"/>
<path d="M44.9386 73.7436C42.9968 73.7436 41.0524 73.7561 39.1106 73.7411C37.5335 73.7285 36.9751 73.1639 36.9651 71.5803C36.955 69.7986 36.9525 68.0168 36.9651 66.235C36.9776 64.7167 37.5587 64.1194 39.0628 64.1144C43.042 64.1018 47.0212 64.0993 51.0004 64.1144C52.4467 64.1194 53.0353 64.7292 53.0504 66.1873C53.068 68.0318 53.0705 69.8763 53.0504 71.7209C53.0328 73.1338 52.4593 73.721 51.0482 73.7386C49.0108 73.7637 46.976 73.7461 44.9386 73.7461V73.7436ZM49.8359 70.4636C49.8359 69.5376 49.8711 68.6692 49.8082 67.806C49.7956 67.6303 49.4233 67.3392 49.2146 67.3367C46.4 67.3065 43.5878 67.3065 40.7732 67.3367C40.5745 67.3367 40.2224 67.6478 40.2098 67.8336C40.1494 68.6943 40.1821 69.5601 40.1821 70.4586H49.8359V70.4636Z" fill="#5EA756"/>
<path d="M16.0325 73.7436C14.0907 73.7436 12.1464 73.7536 10.2046 73.7411C8.58218 73.7285 8.07661 73.214 8.07158 71.5929C8.06403 69.781 8.06152 67.9665 8.07158 66.1546C8.08164 64.7217 8.62997 64.1244 10.036 64.1169C14.0781 64.0968 18.1202 64.0968 22.1623 64.1169C23.5206 64.1244 24.1041 64.7392 24.1142 66.0793C24.1267 67.954 24.1242 69.8311 24.1142 71.7058C24.1066 73.1689 23.5533 73.726 22.0491 73.7385C20.0444 73.7561 18.0397 73.7436 16.0325 73.7436V73.7436ZM11.3289 70.4485H20.8569V67.3768H11.3289V70.4485V70.4485Z" fill="#5EA756"/>
<path d="M73.9224 73.7436C71.9479 73.7436 69.9734 73.7562 68.0014 73.7411C66.4494 73.7286 65.9086 73.179 65.9036 71.6456C65.8961 69.8337 65.8961 68.0193 65.9036 66.2074C65.9086 64.7192 66.4595 64.122 67.9184 64.1169C71.9278 64.0994 75.9397 64.0994 79.9491 64.1169C81.3752 64.1245 81.9336 64.7042 81.9437 66.1246C81.9563 67.9992 81.9588 69.8764 81.9437 71.751C81.9336 73.1715 81.3853 73.7236 79.9365 73.7411C77.9318 73.7637 75.9271 73.7461 73.9199 73.7461L73.9224 73.7436ZM69.1383 70.4611H78.6889V67.3994H69.1383V70.4611Z" fill="#5EA756"/>
</svg>
