<svg width="90" height="90" viewBox="0 0 90 90" fill="none" xmlns="http://www.w3.org/2000/svg">
<g clip-path="url(#clip0_1_155)">
<path d="M90.0002 87.683C89.322 89.4154 88.0476 89.9906 86.2123 89.9882C58.7438 89.953 31.2754 89.9413 3.80695 90C1.29339 90.0047 -0.189869 88.5727 0.019008 86.2369C0.12462 85.0468 0.0330895 83.8378 0.0377834 82.6359C0.0471711 80.7133 1.2887 79.4551 3.22726 79.4457C6.85796 79.4316 10.4887 79.441 14.1217 79.441C14.3799 79.441 14.638 79.441 15.0112 79.441C14.7859 75.9151 16.0485 73.3352 19.5009 72.138V64.2833C17.7148 65.7552 16.0344 67.1402 14.3517 68.5276C13.8096 68.9736 13.2838 69.4431 12.7182 69.8586C11.3734 70.8469 9.72825 70.6708 8.61346 69.4196C7.99152 68.7201 7.40244 67.99 6.81806 67.2576C5.58827 65.7247 5.74317 64.0439 7.26867 62.7762C11.8405 58.9804 16.4287 55.2033 21.0099 51.4168C24.6219 48.4331 28.2338 45.4518 31.841 42.4635C33.6904 40.9329 35.298 41.0808 36.8329 42.94C37.3 43.5034 37.7717 44.0621 38.2317 44.6326C39.4685 46.1631 39.3371 47.8557 37.8233 49.1233C34.9296 51.5482 31.9983 53.9309 29.1139 56.37C28.8135 56.6235 28.567 57.1329 28.5647 57.5249C28.5271 62.1518 28.5412 66.7787 28.5389 71.4056C28.5389 71.8187 28.5201 72.145 29.0505 72.3516C31.7612 73.4033 33.0426 75.4503 33.0544 78.3306C33.0544 78.6522 33.0544 78.9738 33.0544 79.3682H40.4918C40.2876 75.9433 41.508 73.3681 44.9721 72.1521V64.3115C44.6036 64.6073 44.2985 64.842 44.0004 65.0885C42.2168 66.5604 40.4355 68.0369 38.6541 69.5112C36.8939 70.9666 35.2182 70.807 33.7866 69.051C33.343 68.5064 32.8877 67.9689 32.4418 67.4289C31.0384 65.7341 31.1674 64.0932 32.8572 62.6941C38.0627 58.3794 43.2823 54.0765 48.4948 49.7689C51.4285 47.3439 54.3645 44.9213 57.2981 42.4964C59.2015 40.9236 60.7951 41.0761 62.3511 42.9799C62.8134 43.5457 63.2875 44.1044 63.7451 44.6748C64.9421 46.1725 64.8083 47.8627 63.3344 49.0998C60.4407 51.5271 57.5305 53.9333 54.6039 56.3183C54.1697 56.6728 54.0148 57.0296 54.0171 57.5766C54.0383 62.1448 54.0383 66.713 54.0171 71.2812C54.0148 71.8704 54.1274 72.192 54.7541 72.4338C57.094 73.3329 58.5138 75.5019 58.5373 78.0349C58.542 78.4668 58.5373 78.9011 58.5373 79.387H65.9677C65.7447 75.9198 67.0074 73.3376 70.4597 72.1356V64.281C68.6737 65.7528 66.9933 67.1402 65.3106 68.5252C64.7684 68.9712 64.2404 69.4407 63.6747 69.8539C62.33 70.8398 60.673 70.6614 59.57 69.4126C58.9879 68.7553 58.4434 68.0651 57.8872 67.3867C56.5283 65.727 56.6598 64.0838 58.3097 62.7152C63.2194 58.64 68.1433 54.5788 73.0625 50.513C76.2895 47.8463 79.5189 45.1819 82.7412 42.5105C84.6727 40.9095 86.2686 41.0527 87.8505 43.0199C88.5944 43.9448 89.2844 44.9119 90.0002 45.8603V47.4425C89.3971 48.1749 88.8831 49.013 88.172 49.621C85.5059 51.9051 82.7623 54.1 80.0821 56.3676C79.7817 56.6235 79.5329 57.1282 79.5306 57.5202C79.493 62.1448 79.5165 66.7717 79.493 71.3962C79.4907 71.9478 79.6456 72.2014 80.1713 72.408C82.1967 73.2061 83.464 74.6967 83.8724 76.8423C84.0273 77.6616 84.0179 78.5137 84.0907 79.441C84.7666 79.441 85.4355 79.4879 86.0949 79.4316C87.942 79.2743 89.2727 79.9645 90.0002 81.7063V87.6806V87.683ZM3.05359 86.9036H86.9469V82.5608H3.05593V86.9036H3.05359ZM61.877 67.4454C70.2954 60.4851 78.6129 53.6093 86.9844 46.6913C86.3461 45.9354 85.7523 45.2335 85.1069 44.4706C76.7213 51.4074 68.3874 58.2996 60.0112 65.227C60.6519 65.9899 61.2316 66.6754 61.877 67.443V67.4454ZM34.148 44.4729C25.7765 51.398 17.4449 58.2879 9.05468 65.227C9.69539 65.9946 10.2798 66.6965 10.9064 67.4501C19.3319 60.4874 27.6635 53.6023 36.0256 46.6913C35.3731 45.9213 34.7911 45.2359 34.1457 44.4753L34.148 44.4729ZM59.6357 44.4729C51.2384 51.4191 42.9068 58.3113 34.54 65.2317C35.1924 66.0087 35.7698 66.6942 36.4011 67.4454C44.8078 60.4992 53.1488 53.607 61.5085 46.6984C61.1846 46.304 60.9077 45.9612 60.6284 45.6279C60.328 45.2711 60.0206 44.919 59.638 44.4729H59.6357ZM55.5168 79.3987C55.5168 78.8659 55.545 78.4034 55.5121 77.9457C55.383 76.1287 54.1908 75.0183 52.3579 75.0113C50.4005 75.0019 48.4408 74.9972 46.4835 75.016C45.141 75.0277 43.984 75.8564 43.6906 77.1193C43.524 77.8377 43.5827 78.6053 43.5357 79.4011H55.5145L55.5168 79.3987ZM80.9998 79.3964C80.9998 79.0067 81.0045 78.664 80.9998 78.3213C80.9716 76.1803 79.8075 75.016 77.6859 75.009C75.9327 75.0043 74.1726 75.0982 72.4264 74.9855C70.2673 74.8446 68.4484 76.5113 69.1877 79.3964H80.9998V79.3964ZM30.0245 79.4058C30.0245 78.8753 30.0456 78.441 30.0198 78.009C29.9095 76.131 28.7313 75.0183 26.8444 75.0113C24.8871 75.0043 22.9297 74.9972 20.9724 75.016C19.6933 75.0277 18.5926 75.7648 18.2617 76.9761C18.0552 77.7344 18.095 78.5607 18.0223 79.4058H30.0245V79.4058ZM25.4714 59.3607C24.6125 60.0649 23.8732 60.7152 23.087 61.302C22.6669 61.6142 22.5143 61.9546 22.5214 62.4758C22.5495 64.6401 22.5331 66.8045 22.5331 68.9689C22.5331 69.9267 22.5331 70.8844 22.5331 71.8821H25.4714V59.3607V59.3607ZM76.4303 59.3583C75.5713 60.0649 74.8344 60.7152 74.0505 61.3044C73.6328 61.6189 73.4826 61.9593 73.4872 62.4805C73.5154 64.7317 73.499 66.9829 73.499 69.2318C73.499 70.1004 73.499 70.9689 73.499 71.8774H76.4303V59.3583V59.3583ZM50.9239 71.9126V59.3818C50.0602 60.0954 49.2623 60.694 48.5464 61.3771C48.2742 61.6377 48.0489 62.0908 48.0418 62.4593C48.002 65.3514 48.0184 68.2435 48.0207 71.1356C48.0207 71.3844 48.0559 71.6356 48.0771 71.9126H50.9215H50.9239Z" fill="#5EA755"/>
<path d="M21.6481 2.81429e-05C22.371 0.568118 22.6221 1.30053 22.5376 2.2137C22.4696 2.96724 22.5423 3.73487 22.5165 4.4931C22.486 5.39923 21.8805 5.98375 21.0238 5.9814C20.1602 5.9814 19.5664 5.40627 19.5429 4.48606C19.5171 3.49308 19.4397 2.48366 19.5758 1.50711C19.6509 0.974232 20.125 0.500041 20.4183 -0.00231934H21.6481V2.81429e-05Z" fill="#5EA755"/>
<path d="M9.00977 21.0052C9.00742 14.3947 14.3889 8.98847 20.9885 8.97438C27.6326 8.96265 33.0587 14.3806 33.047 21.017C33.0353 27.6063 27.6115 33.0173 21.0213 33.0126C14.4312 33.0079 9.01211 27.5899 9.00977 21.0029V21.0052ZM21.0636 29.9608C26.0532 29.9209 30.0594 25.8692 29.9913 20.9324C29.9232 15.9605 25.9593 12.012 21.0331 12.0073C16.0928 12.0026 12.0232 16.0779 12.0443 21.0076C12.0655 25.9748 16.121 30.0008 21.0636 29.9608V29.9608Z" fill="#5EA755"/>
<path d="M32.4019 3.84755C32.2376 4.35225 32.1906 4.64804 32.0545 4.89452C31.5945 5.73727 31.1228 6.57766 30.6159 7.39459C30.0948 8.23498 29.2781 8.458 28.5224 8.01902C27.7878 7.59178 27.5578 6.71617 28.0084 5.88751C28.4802 5.01894 28.9777 4.15976 29.5011 3.31936C29.9047 2.67146 30.5783 2.3968 31.2401 2.70667C31.726 2.93438 32.0569 3.49073 32.4042 3.84755H32.4019Z" fill="#5EA755"/>
<path d="M8.26344 29.5759C8.08273 29.7942 7.80814 30.2872 7.39273 30.5806C6.63467 31.1159 5.80152 31.5501 4.98009 31.9915C4.12346 32.4492 3.29265 32.2403 2.84908 31.5008C2.40786 30.7637 2.63551 29.8999 3.45459 29.3952C4.29713 28.8764 5.14907 28.3646 6.03386 27.9209C7.10406 27.3834 8.30334 28.1299 8.26344 29.5736V29.5759Z" fill="#5EA755"/>
<path d="M11.6288 2.62446C11.8236 2.77704 12.3164 3.01648 12.591 3.40617C13.1426 4.19257 13.5979 5.0494 14.0532 5.90154C14.4991 6.73724 14.2456 7.60815 13.4876 8.02366C12.7483 8.42977 11.9574 8.21615 11.4528 7.40862C10.9247 6.56587 10.4107 5.71139 9.96716 4.82404C9.41798 3.72542 10.1432 2.58924 11.6311 2.62446H11.6288Z" fill="#5EA755"/>
<path d="M4.1633 9.69972C4.38626 9.76545 4.63034 9.79597 4.82748 9.9063C5.71931 10.4016 6.61584 10.8899 7.47482 11.4392C8.27981 11.9533 8.47695 12.7421 8.06389 13.4745C7.64145 14.2233 6.77074 14.4721 5.94462 14.0261C5.07156 13.5566 4.21728 13.0566 3.37239 12.5355C2.72463 12.1364 2.42188 11.4674 2.73402 10.8077C2.97341 10.3007 3.54606 9.95325 3.97085 9.5354L4.16095 9.70207L4.1633 9.69972Z" fill="#5EA755"/>
<path d="M2.93618 22.4841C2.43863 22.4841 1.93873 22.5099 1.44353 22.4794C0.610371 22.4278 0.0353737 21.7963 0.0400676 20.9841C0.0447614 20.1648 0.610371 19.5404 1.45996 19.5146C2.51138 19.4817 3.5675 19.4793 4.61892 19.5146C5.46851 19.5451 6.02004 20.1695 6.01535 21.0005C6.01065 21.8245 5.44739 22.4348 4.6025 22.4794C4.04862 22.5099 3.49005 22.4841 2.93383 22.4841H2.93618Z" fill="#5EA755"/>
<path d="M33.7934 12.4534C33.9553 12.2374 34.183 11.7351 34.5725 11.4627C35.3799 10.8947 36.26 10.4252 37.133 9.96036C37.9709 9.51434 38.8158 9.76787 39.2335 10.5308C39.6302 11.2562 39.4143 12.0778 38.628 12.5684C37.7902 13.0919 36.9336 13.5966 36.0511 14.0426C34.9715 14.5896 33.7887 13.883 33.791 12.4534H33.7934Z" fill="#5EA755"/>
<path d="M39.4024 30.4585C39.393 31.8459 38.3135 32.5877 37.3019 32.0994C36.3045 31.6205 35.3469 31.0407 34.4246 30.4257C33.7323 29.9632 33.6173 29.1557 34.0186 28.4819C34.4058 27.8317 35.2202 27.5265 35.9243 27.8857C36.9123 28.388 37.884 28.9374 38.7993 29.5618C39.1396 29.7942 39.2968 30.2895 39.4048 30.4585H39.4024Z" fill="#5EA755"/>
<path d="M11.535 39.3719C10.2278 39.3461 9.458 38.3578 9.87576 37.4353C10.3639 36.3554 10.9765 35.3202 11.643 34.3389C12.0819 33.691 12.7953 33.5854 13.5088 33.9751C14.1753 34.3413 14.4969 35.1559 14.1448 35.8507C13.6355 36.8601 13.0699 37.8508 12.4339 38.7851C12.2063 39.1207 11.7017 39.2686 11.5327 39.3719H11.535Z" fill="#5EA755"/>
<path d="M32.5941 37.8836C32.0731 38.4493 31.7563 39.001 31.2798 39.2592C30.6696 39.5879 29.9773 39.3766 29.5877 38.7733C28.9728 37.8226 28.3884 36.8437 27.8932 35.8248C27.5928 35.2051 27.7665 34.5596 28.3415 34.1041C28.8789 33.6769 29.6276 33.5196 30.0195 34.0149C30.9419 35.1816 31.6859 36.4915 32.5941 37.8859V37.8836Z" fill="#5EA755"/>
<path d="M39.0106 22.4842C38.4849 22.4842 37.9545 22.51 37.4311 22.4771C36.5886 22.4255 36.03 21.8081 36.0347 20.9818C36.0394 20.1508 36.5909 19.5404 37.4499 19.5122C38.5013 19.477 39.5574 19.477 40.6089 19.5122C41.442 19.5404 42.0264 20.193 42.0217 20.9982C42.017 21.7963 41.4209 22.4325 40.5924 22.4771C40.0667 22.5076 39.5387 22.4818 39.0129 22.4818L39.0106 22.4842Z" fill="#5EA755"/>
<path d="M19.5403 38.9282C19.5403 38.4024 19.5122 37.8719 19.5497 37.3484C19.6084 36.5432 20.1998 36.0127 20.9954 36.0009C21.8262 35.9892 22.4763 36.5385 22.5068 37.3742C22.5467 38.4564 22.5467 39.5409 22.5068 40.6208C22.4763 41.3978 21.8192 41.9706 21.0564 41.9846C20.2514 42.0011 19.599 41.4212 19.5474 40.5949C19.5122 40.0409 19.5403 39.4822 19.5427 38.9282H19.5403Z" fill="#5EA755"/>
</g>
<defs>
<clipPath id="clip0_1_155">
<rect width="90" height="90" fill="white"/>
</clipPath>
</defs>
</svg>
