<svg width="10" height="17" viewBox="0 0 10 17" fill="none" xmlns="http://www.w3.org/2000/svg">
<path d="M1.26969 16.5691C0.933305 16.4955 0.621452 16.3758 0.385636 16.1191C-0.15047 15.5354 -0.125592 14.7452 0.447656 14.1656C0.586413 14.0252 0.730776 13.8905 0.872686 13.7532C2.70946 11.9758 4.54589 10.1983 6.38302 8.42155C6.42611 8.37983 6.47587 8.34456 6.58484 8.25537C6.4997 8.20822 6.43067 8.18652 6.38477 8.14209C4.4243 6.24798 2.46699 4.35116 0.505822 2.45739C0.125992 2.09078 -0.0614697 1.66753 0.0254286 1.1439C0.192918 0.132915 1.48203 -0.35104 2.30896 0.288921C2.3871 0.349288 2.46348 0.413386 2.53426 0.481553C4.85634 2.72735 7.17736 4.97451 9.49944 7.2203C9.94339 7.64966 10.1263 8.15193 9.90765 8.73559C9.82881 8.94586 9.6869 9.15206 9.52327 9.31145C7.18858 11.5834 4.84478 13.8465 2.50518 16.1133C2.25255 16.3581 1.94875 16.4989 1.60466 16.5691C1.49289 16.5691 1.38146 16.5691 1.26969 16.5691Z" fill="white"/>
</svg>
