<svg width="10" height="17" viewBox="0 0 10 17" fill="none" xmlns="http://www.w3.org/2000/svg">
<path d="M8.73031 16.5688C9.0667 16.4953 9.37855 16.3755 9.61436 16.1188C10.1505 15.5352 10.1256 14.745 9.55234 14.1654C9.41359 14.025 9.26922 13.8903 9.12731 13.753C7.29054 11.9756 5.45411 10.1982 3.61698 8.42142C3.57389 8.37971 3.52413 8.34444 3.41516 8.25524C3.5003 8.2081 3.56933 8.1864 3.61523 8.14197C5.5757 6.24789 7.53301 4.3511 9.49418 2.45736C9.87401 2.09075 10.0615 1.66751 9.97457 1.14388C9.80708 0.132913 8.51797 -0.351035 7.69104 0.288916C7.6129 0.349283 7.53652 0.41338 7.46574 0.481546C5.14366 2.72731 2.82264 4.97443 0.500561 7.2202C0.0566092 7.64955 -0.126297 8.15181 0.09235 8.73546C0.171189 8.94573 0.3131 9.15192 0.476734 9.31132C2.81142 11.5832 5.15522 13.8463 7.49482 16.113C7.74745 16.3579 8.05125 16.4986 8.39534 16.5688C8.50711 16.5688 8.61854 16.5688 8.73031 16.5688Z" fill="white"/>
</svg>
