<svg width="23" height="21" viewBox="0 0 23 21" fill="none" xmlns="http://www.w3.org/2000/svg">
<path d="M5.1483 21H0.379911V6.97937H5.1483V21ZM2.76154 5.06683C1.23676 5.06683 0 3.91368 0 2.52146C1.09137e-08 1.85273 0.290947 1.21139 0.808836 0.738519C1.32673 0.265653 2.02913 0 2.76154 0C3.49395 0 4.19635 0.265653 4.71424 0.738519C5.23213 1.21139 5.52308 1.85273 5.52308 2.52146C5.52308 3.91368 4.2858 5.06683 2.76154 5.06683ZM22.9949 21H18.2367V14.1748C18.2367 12.5482 18.2008 10.4623 15.7576 10.4623C13.2784 10.4623 12.8985 12.2295 12.8985 14.0577V21H8.13522V6.97937H12.7085V8.89192H12.7753C13.4119 7.79033 14.9669 6.6278 17.287 6.6278C22.1129 6.6278 23 9.52943 23 13.2983V21H22.9949Z" fill="#2D4639"/>
</svg>
